<?xml version="1.0" encoding="utf-8"?>
<!-- Generator: Adobe Illustrator 22.0.1, SVG Export Plug-In . SVG Version: 6.00 Build 0)  -->
<svg version="1.1" id="Calque_1" xmlns="http://www.w3.org/2000/svg" xmlns:xlink="http://www.w3.org/1999/xlink" x="0px" y="0px"
	 viewBox="0 0 420 420" style="enable-background:new 0 0 420 420;" xml:space="preserve">
<style type="text/css">
	.st0{opacity:0.15;fill:#FF7900;}
	.st1{opacity:0.38;}
	.st2{fill:#FF7900;}
</style>
<ellipse class="st0" cx="210" cy="388.1" rx="108" ry="32.1"/>
<path class="st0" d="M167.9,105.5c-5-29.6-30.8-52.2-61.8-52.2c-23.4,0-43.9,12.9-54.6,31.9C23.6,89,2.1,112.9,2.1,141.8
	c0,31.5,25.4,57,56.9,57.2v0h101.6c26,0,47-21.1,47-47C207.6,128.5,190.4,109,167.9,105.5z"/>
<g class="st1">
	<path class="st2" d="M364.5,81.8c-14.5,0-26.4-11.8-26.4-26.4S349.9,29,364.5,29c14.6,0,26.4,11.8,26.4,26.4S379.1,81.8,364.5,81.8
		z M364.5,35.6c-11,0-19.8,8.9-19.8,19.8s8.9,19.8,19.8,19.8c11,0,19.8-8.9,19.8-19.8S375.5,35.6,364.5,35.6z"/>
	<g>
		<path class="st2" d="M364.5,21.7c-1.8,0-3.2-1.4-3.2-3.2V5.1c0-1.8,1.4-3.2,3.2-3.2s3.2,1.4,3.2,3.2v13.3
			C367.9,20.2,366.4,21.7,364.5,21.7z"/>
		<path class="st2" d="M364.5,109.1c-1.8,0-3.2-1.4-3.2-3.2V92.5c0-1.8,1.4-3.2,3.2-3.2s3.2,1.4,3.2,3.2v13.3
			C367.9,107.6,366.4,109.1,364.5,109.1z"/>
	</g>
	<g>
		<path class="st2" d="M390.8,32.5c-0.8,0-1.7-0.3-2.4-1c-1.3-1.3-1.3-3.4,0-4.6l9.4-9.4c1.3-1.3,3.4-1.3,4.6,0
			c1.3,1.3,1.3,3.4,0,4.6l-9.4,9.4C392.5,32.2,391.6,32.5,390.8,32.5z"/>
		<path class="st2" d="M329,94.3c-0.8,0-1.7-0.3-2.4-1c-1.3-1.3-1.3-3.4,0-4.6l9.4-9.4c1.3-1.3,3.4-1.3,4.6,0c1.3,1.3,1.3,3.4,0,4.6
			l-9.4,9.4C330.7,94.1,329.8,94.3,329,94.3z"/>
	</g>
	<g>
		<path class="st2" d="M415,58.7h-13.3c-1.8,0-3.2-1.4-3.2-3.2s1.4-3.2,3.2-3.2H415c1.8,0,3.2,1.4,3.2,3.2S416.7,58.7,415,58.7z"/>
		<path class="st2" d="M327.6,58.7h-13.3c-1.8,0-3.2-1.4-3.2-3.2s1.4-3.2,3.2-3.2h13.3c1.8,0,3.2,1.4,3.2,3.2S329.4,58.7,327.6,58.7
			z"/>
	</g>
	<g>
		<path class="st2" d="M400.2,94.3c-0.8,0-1.7-0.3-2.4-1l-9.4-9.4c-1.3-1.3-1.3-3.4,0-4.6c1.3-1.3,3.4-1.3,4.6,0l9.4,9.4
			c1.3,1.3,1.3,3.4,0,4.6C401.9,94.1,401.1,94.3,400.2,94.3z"/>
		<path class="st2" d="M338.4,32.5c-0.8,0-1.7-0.3-2.4-1l-9.4-9.4c-1.3-1.3-1.3-3.4,0-4.6c1.3-1.3,3.4-1.3,4.6,0l9.4,9.4
			c1.3,1.3,1.3,3.4,0,4.6C340.1,32.2,339.2,32.5,338.4,32.5z"/>
	</g>
</g>
<g>
	<path class="st2" d="M224.9,386h-29.7c-10.5,0-19.6-9.9-20.6-21.9l-10.1-136.6c-0.6-8.5-7.6-18.6-15.1-22.1
		c-0.6-0.4-16.3-7.8-29.7-21.3c-5-4.7-7.6-11.1-7.6-17.7c0-6.6,2.5-13,7.2-17.7c4.7-4.7,10.9-7.4,17.5-7.4s13,2.5,17.7,7.2
		c30.8,30.1,80.3,29.7,110.6-1c4.7-4.7,10.9-7.4,17.5-7.4h0.2c6.6,0,12.8,2.5,17.5,7.2l0,0c9.9,9.7,9.9,25.6,0.4,35.5
		c-13.4,13.4-29.3,21.5-30.1,21.7c-7.6,3.7-14.4,14-15.1,22.5l-10.3,137.3C244.5,376.1,235.5,386,224.9,386z"/>
	<path class="st2" d="M210.1,163.3c-20.4,0-37.2-16.7-37.2-37.2S189.6,89,210.1,89s37.2,16.7,37.2,37.2S230.5,163.3,210.1,163.3z"/>
</g>
<circle class="st0" cx="350" cy="254" r="24"/>
<circle class="st0" cx="88" cy="254" r="14"/>
<circle class="st0" cx="138" cy="65" r="14"/>
<circle class="st0" cx="276" cy="34" r="6"/>
<g>
	<path class="st2" d="M210,58.1c-2.8,0-4.9-2.1-4.9-4.9V32.9c0-2.8,2.1-4.9,4.9-4.9s4.9,2.1,4.9,4.9v20.3
		C215.1,55.7,212.8,58.1,210,58.1z"/>
	<path class="st2" d="M249.9,74.5c-1.3,0-2.6-0.4-3.6-1.5c-1.9-1.9-1.9-5.1,0-7l14.3-14.3c1.9-1.9,5.1-1.9,7,0c1.9,1.9,1.9,5.1,0,7
		L253.3,73C252.5,74.1,251.2,74.5,249.9,74.5z"/>
	<path class="st2" d="M170.3,74.5c-1.3,0-2.6-0.4-3.6-1.5l-14.3-14.3c-1.9-1.9-1.9-5.1,0-7c1.9-1.9,5.1-1.9,7,0L173.7,66
		c1.9,1.9,1.9,5.1,0,7C172.9,74.1,171.6,74.5,170.3,74.5z"/>
</g>
</svg>
