<?xml version="1.0" encoding="utf-8"?>
<!-- Generator: Adobe Illustrator 22.0.1, SVG Export Plug-In . SVG Version: 6.00 Build 0)  -->
<svg version="1.1" id="Calque_1" xmlns="http://www.w3.org/2000/svg" xmlns:xlink="http://www.w3.org/1999/xlink" x="0px" y="0px"
	 viewBox="0 0 420 420" style="enable-background:new 0 0 420 420;" xml:space="preserve">
<style type="text/css">
	.st0{opacity:0.15;fill:#FF7900;}
	.st1{fill:#FF7900;}
	.st2{fill:none;}
</style>
<path class="st0" d="M420,383c0,20.4-93.8,37-209.5,37S1,403.4,1,383c0-6.7,10-12.9,27.5-18.3c5.5-1.7,11.6-3.3,18.5-4.8H62
	l-0.5-2.9c3.4-0.6,6.9-1.2,10.5-1.8l0.8,4.8h31.2l-1.4-8.8c3.5-0.4,7.2-0.7,10.8-1.1l1.5,9.9h112.4l2.2-13.9c3.7,0,7.4,0.1,11,0.2
	l-2.2,13.9h31.2l2-12.7c3.6,0.2,7.2,0.4,10.7,0.6l-1.9,12h19.6c2.2-0.2,4.1-1.6,4.9-3.7c1-2.3,0.5-4.9-1.1-6.7
	c4.2,0.4,8.3,0.8,12.3,1.2C378.3,357.5,420,369.4,420,383z"/>
<path class="st0" d="M382.9,47.3c-4.3-25.6-26.5-45.1-53.3-45.1c-20.2,0-37.8,11.1-47.1,27.5c-24,3.3-42.5,23.9-42.5,48.9
	c0,27.2,22,49.2,49.1,49.3v0h87.7c22.4,0,40.6-18.2,40.6-40.6C417.2,67.1,402.4,50.3,382.9,47.3z"/>
<circle class="st0" cx="57" cy="232" r="24"/>
<circle class="st0" cx="77" cy="232" r="14"/>
<circle class="st0" cx="44" cy="45" r="43"/>
<circle class="st0" cx="74" cy="141" r="11"/>
<circle class="st0" cx="379" cy="338" r="11"/>
<circle class="st0" cx="413" cy="412" r="6"/>
<circle class="st0" cx="142" cy="34" r="6"/>
<path class="st1" d="M329.7,267.7h22.6c8.6,0,16.5-3.5,22.4-9.6c5.9-6.1,9.2-14.3,9.2-22.9c0.2-17.8-14.1-32.2-31.6-32.4h-6.1v-21.4
	H129.6v29.8c0,8.4,1,16.5,2.9,24.5l0,0v0.2c0.4,1.8,0.8,3.7,1.4,5.3l0,0l3.3,11.6l11.4-2.9l-3.1-7.5c-3.7-10-5.3-20.6-5.3-31.2v-19
	H335v19c0,13.3-2.7,26.3-8.2,38.4c-10,22.4-28.4,39.8-51,49c3.5,3.5,5.7,7.8,6.7,12.4h59.6l-2.2,2.2c-2,2-4.7,3.3-7.5,3.3H283
	c-0.2,3.9-1.2,7.5-3.1,10.6h52.2c5.7,0,11.2-2.2,15.3-6.3l10-10h12.6v-10.8h-73.7C310.1,292.1,321.4,280.9,329.7,267.7z M337.1,254
	c5.7-12.9,8.8-26.5,9-40.6h6.3c11.8,0.2,21,10,20.8,21.6c0,5.7-2.2,11.2-6.1,15.3c-3.9,4.1-9.2,6.3-14.7,6.3h-16.5
	C336.3,255.8,336.7,255,337.1,254z"/>
<path class="st1" d="M316.3,351.1c-0.6-3.6-2.2-7-5-9.8c-1.6-1.6-3.5-3.3-5.1-4.9l-5.9-5.1c-1.4-1.2-3.1-2.4-4.5-3.7h0.2l-8.8-7.8
	c0.2-1,0.2-2,0.4-3.1h-0.2l0.6-4.3v-1c0-0.1,0-0.3,0-0.5c0-7.7-5.1-13.2-5.1-13.2c-9.6-8.4-20.2-15.7-31.4-21.6l0.6-4.1
	c1.2-7.5-3.1-14.9-10.2-17.8c-8.2-3.3-16.5-5.7-24.9-7.8c-7.3-1.6-13.7-2.7-18.8-3.5c-1-0.2-2-0.2-3.1-0.4c-2.6-0.4-4.9-0.7-6.8-0.8
	c-2-0.2-3.7-0.3-5-0.4c-1.6,0-3.3,0-4.9-0.2c-2.4-0.2-4.9-0.2-7.3-0.2c-24.3,0-48.3,4.5-70.8,13.5c-7.1,2.7-11.4,10.2-10.2,17.8
	l0.6,3.9c-11.2,5.9-21.8,13.3-31.4,21.6c-4.1,3.7-5.9,9.2-5.1,14.5l1.2,7.6c-9,6.5-17.5,13.7-25.3,21.6c-5.1,5.1-6.5,12.7-3.9,19.4
	c0.5,1.4,1.3,2.6,2.1,3.8c2.9,4,7.5,6.4,12.6,6.4h259.3c6.5,0,12.6-4.1,14.9-10.4C316.5,357.5,316.8,354.2,316.3,351.1z M41,359.9
	v0.2c-2.2-0.2-4.1-1.4-4.9-3.7c-1-2.5-0.6-5.5,1.4-7.5c6.3-6.1,13.1-11.8,20-17.1l4,25.3l0.5,2.9H41z M72.8,360.1l-0.8-4.8l-7-44.5
	c-0.2-1.8,0.4-3.7,1.6-4.9c8-7.1,16.7-13.3,25.9-18.6l10,64l1.4,8.8H72.8z M227.5,360.1H115.1l-1.5-9.9L101,270.3
	c-0.4-2.7,1-5.1,3.5-5.9c42.9-16.7,90.6-16.7,133.6,0c2.5,0.8,3.9,3.5,3.5,5.9l-11.9,75.8L227.5,360.1z M269.7,360.3h-31.2l2.2-13.9
	l9.2-58.7c9.2,5.1,18,11.2,25.9,18.4c1.2,1.2,1.8,3.1,1.6,4.9l-5.8,36.7L269.7,360.3z M305,356.6c-0.8,2-2.7,3.5-4.9,3.7h-19.6
	l1.9-12l2.4-15.1c0,0,0,0,0.2,0.2c6.5,4.9,12.7,10.4,18.6,16.1c0.1,0.1,0.3,0.3,0.4,0.4C305.5,351.7,306,354.3,305,356.6z"/>
<g>
	<path class="st1" d="M232,111.2c-2.9-3.1-3.9-4.3-3.9-7.1c0-2.9,1-4.1,3.9-7.1c4.9-4.1,8-10.6,8-17.3c0-0.6-0.2-1.2-0.6-1.6
		s-1-0.6-1.6-0.6h-8c-1.2,0-2.2,1-2.2,2.2c0,2.9-1,4.1-3.9,7.1c-4.9,4.1-8,10.6-8.2,17.5c0.2,6.9,3.3,13.5,8.4,17.3
		c2.9,3.1,3.9,4.1,3.9,7.1c0,2.9-1,4.1-3.9,7.1c-4.9,4.1-8,10.6-8,17.3c0,0.6,0.2,1.2,0.6,1.6c0.4,0.4,1,0.6,1.6,0.6h8
		c1.2,0,2.2-1,2.2-2.2c0-2.9,1-4.1,3.9-7.1c4.9-4.1,7.8-10.4,8-17.3C240.2,121.8,237.1,115.2,232,111.2z"/>
	<path class="st1" d="M265.3,111.2c-2.9-3.1-3.9-4.3-3.9-7.1c0-2.9,1-4.1,3.9-7.1c4.9-4.1,8-10.6,8.2-17.5c0-0.6-0.2-1.2-0.6-1.6
		c-0.4-0.4-1-0.6-1.6-0.6h-8c-1.2,0-2.2,1-2.2,2.2c0,2.9-1,4.1-3.9,7.1c-4.9,4.1-8,10.6-8.2,17.5c0.2,6.9,3.3,13.5,8.2,17.5
		c2.9,3.1,3.9,4.3,3.9,7.1c0,2.9-1,4.1-3.9,7.1c-4.9,4.1-8,10.6-8.2,17.5c0,0.6,0.2,1.2,0.6,1.6s1,0.6,1.6,0.6h8
		c1.2,0,2.2-1,2.2-2.2c0-3.1,1-4.3,3.9-7.1c4.9-4.1,8-10.6,8.2-17.5C273.2,121.8,270.1,115.2,265.3,111.2z"/>
</g>
<path class="st2" d="M367.1,250.5c3.9-4.1,6.1-9.6,6.1-15.3c0.2-11.8-9.2-21.4-20.8-21.6H346c-0.2,14.1-3.3,27.7-9,40.6
	c-0.4,1-1,1.8-1.4,2.7h16.5C357.9,256.8,363.2,254.4,367.1,250.5z"/>
<path class="st2" d="M149,243.2c-1-0.2-2-0.4-3.1-0.4l0,0C146.9,242.8,147.9,243,149,243.2z"/>
<path class="st2" d="M238.7,312.5c0-0.4,0-0.8,0-1l0,0C238.7,311.9,238.7,312.1,238.7,312.5z"/>
</svg>
