<?xml version="1.0" encoding="utf-8"?>
<!-- Generator: Adobe Illustrator 22.0.1, SVG Export Plug-In . SVG Version: 6.00 Build 0)  -->
<svg version="1.1" id="Calque_1" xmlns="http://www.w3.org/2000/svg" xmlns:xlink="http://www.w3.org/1999/xlink" x="0px" y="0px"
	 viewBox="0 0 420 420" style="enable-background:new 0 0 420 420;" xml:space="preserve">
<style type="text/css">
	.st0{opacity:0.15;fill:#FF7900;}
	.st1{fill:#FFFFFF;}
	.st2{fill:#FF7900;}
	.st3{fill:none;stroke:#FF7900;stroke-width:4.0108;stroke-linecap:round;stroke-miterlimit:10;}
	.st4{fill:none;stroke:#FF7900;stroke-width:5.2241;stroke-linecap:round;stroke-miterlimit:10;}
	.st5{opacity:0.38;}
</style>
<g>
	<g>
		<path class="st0" d="M202.6,359.7c-5.3-0.5-10.5-1.3-15.5-2.6C113.1,358.5,55,371.8,55,388c0,17.1,64.7,31,144.5,31
			S344,405.1,344,388c0-14.7-47.9-27.1-112.2-30.2C222.5,359.9,212.7,360.6,202.6,359.7z"/>
		<path class="st0" d="M204.9,168.3c1.9-5.1,2.9-10.6,2.9-16.3c0-23.5-17.2-43-39.8-46.5c-5-29.6-30.8-52.2-61.8-52.2
			c-23.4,0-43.9,12.9-54.6,31.9C23.7,89,2.3,112.9,2.3,141.8c0,31.5,25.4,57,56.9,57.2v0h81.1C156.7,181.2,179.6,169.8,204.9,168.3z
			"/>
		<path class="st0" d="M389.7,264.4c-3.6-21.4-22.2-37.8-44.7-37.8c-16.8,0-31.5,9.2-39.3,22.7c1.1,7.4,1.4,15.1,0.8,22.9
			c-1.7,19.4-9,37-20.3,51.3c6.9,5.3,15.5,8.4,24.8,8.4v0h73.5c18.8,0,34-15.2,34-34C418.5,281,406,266.9,389.7,264.4z"/>
		<path class="st1" d="M187.1,357.1c5,1.3,10.2,2.2,15.5,2.6c10,0.9,19.8,0.1,29.2-1.9c-10.4-0.5-21.2-0.8-32.3-0.8
			C195.3,357,191.2,357,187.1,357.1z"/>
	</g>
	<g>
		<path class="st2" d="M288.7,153.4l-10.1-0.9l0-0.2c0.3-3.9-2.4-7.2-6.3-7.5l-96.4-8.3c-3.9-0.3-7.2,2.4-7.5,6.3l0,0.2l-17.1-1.5
			c-24-2.1-44.9,15.7-46.9,39.5L92.6,317.6c-2,23.8,15.5,44.9,39.5,46.9l14,1.2l-0.4,5.2c-0.4,4.4,2.9,8.2,7.3,8.6l0.3,0
			c4.4,0.4,8.2-2.9,8.6-7.3l0.4-5.2l82.7,7.1l-0.4,5.2c-0.4,4.4,2.9,8.2,7.3,8.6l0.3,0c4.4,0.4,8.2-2.9,8.6-7.3l0.4-5.2l7.9,0.7
			c23.8,2,44.9-15.5,46.9-39.5l11.7-136.4C330.1,176.6,312.5,155.5,288.7,153.4z M202.4,352.7c-50.3-4.3-87.7-48.7-83.3-99
			s48.7-87.7,99-83.3s87.7,48.7,83.3,99C297,319.8,252.7,357,202.4,352.7z"/>
		<circle class="st2" cx="210.2" cy="261.7" r="10.3"/>
		<path class="st2" d="M195,268.7l-24.3,27c-2.9,3.5-2,7.8,0.8,10.1c2.9,2.5,7.3,2.5,10.1-0.8l24.3-27
			C201.1,276.7,197.1,273.1,195,268.7z"/>
		<path class="st2" d="M219.1,247.3l4.2-48.5c0.4-4.6-3.3-7.6-7-7.9c-3.7-0.3-7.8,2-8.2,6.6l-4.2,48.6c2.5-1,5.1-1.4,7.9-1.2
			C214.3,245,216.8,245.9,219.1,247.3z"/>
	</g>
</g>
<path class="st3" d="M346.4,179.6c1.5-15.9-10.3-30-26.2-31.3"/>
<path class="st4" d="M361,174.3c1.9-20.7-13.4-39.1-34.1-40.8"/>
<path class="st3" d="M129.8,127.1c-15.7-3-30.8,7.4-33.7,23.1"/>
<path class="st4" d="M127.2,111.1c-20.4-3.9-40.1,9.7-43.8,30.1"/>
<g class="st5">
	<path class="st2" d="M353.6,96.7c-17.1,0-31.3-14-31.3-31.3s14-31.3,31.3-31.3c17.3,0,31.3,14,31.3,31.3S370.9,96.7,353.6,96.7z
		 M353.6,41.9c-13,0-23.5,10.5-23.5,23.5s10.5,23.5,23.5,23.5c13,0,23.5-10.5,23.5-23.5S366.6,41.9,353.6,41.9z"/>
	<g>
		<path class="st2" d="M353.6,25.5c-2.2,0-3.8-1.7-3.8-3.8V5.8c0-2.2,1.7-3.8,3.8-3.8c2.2,0,3.8,1.7,3.8,3.8v15.8
			C357.6,23.6,355.8,25.5,353.6,25.5z"/>
		<path class="st2" d="M353.6,129c-2.2,0-3.8-1.7-3.8-3.8v-15.8c0-2.2,1.7-3.8,3.8-3.8c2.2,0,3.8,1.7,3.8,3.8v15.8
			C357.6,127.2,355.8,129,353.6,129z"/>
	</g>
	<g>
		<path class="st2" d="M384.7,38.3c-1,0-2-0.3-2.8-1.2c-1.5-1.5-1.5-4,0-5.5l11.2-11.2c1.5-1.5,4-1.5,5.5,0c1.5,1.5,1.5,4,0,5.5
			l-11.2,11.2C386.7,38,385.7,38.3,384.7,38.3z"/>
		<path class="st2" d="M311.5,111.5c-1,0-2-0.3-2.8-1.2c-1.5-1.5-1.5-4,0-5.5l11.2-11.2c1.5-1.5,4-1.5,5.5,0c1.5,1.5,1.5,4,0,5.5
			l-11.2,11.2C313.5,111.2,312.5,111.5,311.5,111.5z"/>
	</g>
	<g>
		<path class="st2" d="M413.4,69.2h-15.8c-2.2,0-3.8-1.7-3.8-3.8s1.7-3.8,3.8-3.8h15.8c2.2,0,3.8,1.7,3.8,3.8S415.4,69.2,413.4,69.2
			z"/>
		<path class="st2" d="M309.8,69.2H294c-2.2,0-3.8-1.7-3.8-3.8s1.7-3.8,3.8-3.8h15.8c2.2,0,3.8,1.7,3.8,3.8S312,69.2,309.8,69.2z"/>
	</g>
	<g>
		<path class="st2" d="M395.9,111.5c-1,0-2-0.3-2.8-1.2l-11.2-11.2c-1.5-1.5-1.5-4,0-5.5c1.5-1.5,4-1.5,5.5,0l11.2,11.2
			c1.5,1.5,1.5,4,0,5.5C397.9,111.2,396.9,111.5,395.9,111.5z"/>
		<path class="st2" d="M322.7,38.3c-1,0-2-0.3-2.8-1.2L308.7,26c-1.5-1.5-1.5-4,0-5.5c1.5-1.5,4-1.5,5.5,0l11.2,11.2
			c1.5,1.5,1.5,4,0,5.5C324.7,38,323.7,38.3,322.7,38.3z"/>
	</g>
</g>
</svg>
