<?xml version="1.0" encoding="utf-8"?>
<!-- Generator: Adobe Illustrator 22.0.1, SVG Export Plug-In . SVG Version: 6.00 Build 0)  -->
<svg version="1.1" id="Calque_1" xmlns="http://www.w3.org/2000/svg" xmlns:xlink="http://www.w3.org/1999/xlink" x="0px" y="0px"
	 viewBox="0 0 420 420" style="enable-background:new 0 0 420 420;" xml:space="preserve">
<style type="text/css">
	.st0{opacity:0.15;fill:#FF7900;}
	.st1{fill:#FF7900;}
	.st2{fill:#FFFFFF;}
</style>
<path class="st0" d="M378.9,67.5c-5-29.6-30.8-52.2-61.8-52.2c-23.4,0-43.9,12.9-54.6,31.9c-27.9,3.8-49.3,27.7-49.3,56.6
	c0,31.5,25.4,57,56.9,57.2v0h101.6c26,0,47-21.1,47-47C418.6,90.5,401.4,71,378.9,67.5z"/>
<circle class="st0" cx="68" cy="254" r="24"/>
<circle class="st0" cx="88" cy="254" r="14"/>
<circle class="st0" cx="44" cy="45" r="43"/>
<circle class="st0" cx="74" cy="141" r="11"/>
<circle class="st0" cx="335" cy="338" r="11"/>
<circle class="st0" cx="25" cy="394" r="24"/>
<circle class="st0" cx="413" cy="412" r="6"/>
<circle class="st0" cx="142" cy="34" r="6"/>
<g>
	<path class="st1" d="M187.5,190.5l35.1-26.9c12-11.1,27.7-17.3,44.3-17.3c35.8,0,65.1,29.1,65.1,65.1c0,17.8-7.1,34.4-19.8,46.8
		L260.1,299L187.5,190.5z"/>
	<path class="st1" d="M212.9,150.2c-0.9,0-1.8-0.4-2.5-1.1l-32.8-32.7c-1.4-1.4-1.4-3.5,0-4.9s3.5-1.4,4.9,0l32.8,32.8
		c1.4,1.4,1.4,3.5,0,4.9C214.7,149.8,213.8,150.2,212.9,150.2z"/>
	<path class="st1" d="M266.9,136.1c-1.9,0-3.5-1.6-3.5-3.5V86.5c0-1.9,1.6-3.5,3.5-3.5c1.9,0,3.5,1.6,3.5,3.5v46.2
		C270.3,134.5,268.7,136.1,266.9,136.1z"/>
	<path class="st1" d="M322.5,159c-0.9,0-1.8-0.4-2.5-1.1c-1.4-1.4-1.4-3.5,0-4.9l32.8-32.8c1.4-1.4,3.5-1.4,4.9,0
		c1.4,1.4,1.4,3.5,0,4.9L325,157.9C324.3,158.6,323.4,159,322.5,159z"/>
	<path class="st1" d="M392,214.8h-46.2c-1.9,0-3.5-1.6-3.5-3.5s1.6-3.5,3.5-3.5H392c1.9,0,3.5,1.6,3.5,3.5
		C395.6,213.2,394,214.8,392,214.8z"/>
	<path class="st1" d="M362.4,299.7c-0.9,0-1.8-0.4-2.5-1.1l-32.8-32.8c-1.4-1.4-1.4-3.5,0-4.9c1.4-1.4,3.5-1.4,4.9,0l32.8,32.8
		c1.4,1.4,1.4,3.5,0,4.9C364.2,299.5,363.3,299.7,362.4,299.7z"/>
	<g>
		<path class="st1" d="M80.4,337.1H251c30.9,0,55.9-24.2,55.9-53.7c0-0.9,0-1.8-0.1-2.7c-0.1-1.8-0.3-3.6-0.6-5.4
			c-0.3-1.8-0.7-3.5-1.1-5.2c-0.5-1.7-1-3.4-1.6-5c-0.3-0.8-0.6-1.6-1-2.4c-0.7-1.6-1.5-3.2-2.4-4.7c-0.9-1.5-1.8-3-2.8-4.4
			s-2.1-2.8-3.2-4.1c-1.1-1.3-2.3-2.6-3.6-3.8c-1.3-1.2-2.6-2.4-4-3.5c-0.7-0.5-1.4-1.1-2.1-1.6c-1.4-1-2.9-2-4.5-2.9
			c-8.5-4.9-18.4-7.8-29-7.8h-4.6c-4.2-41.1-39-72.7-80.7-72.7c-41.7,0-76.4,31.6-80.8,72.5h-4.6c-30.9,0-55.9,24.2-55.9,53.8
			C24.4,312.9,49.5,337.1,80.4,337.1z"/>
		<path class="st2" d="M24.4,283.4v31.4c5.5,9.1,13.4,16.8,22.8,22.2h33.1C49.5,337.1,24.4,312.9,24.4,283.4z"/>
		<path class="st2" d="M80.4,229.6H85c4.4-40.9,39.2-72.5,80.8-72.5c41.7,0,76.4,31.6,80.7,72.7h4.6c10.6,0,20.5,2.9,29,7.8
			c1.5,0.9,3,1.9,4.5,2.9c0.7,0.5,1.4,1,2.1,1.6c1.4,1.1,2.7,2.3,4,3.5c1.3,1.2,2.5,2.5,3.6,3.8c1.1,1.3,2.2,2.7,3.2,4.1
			s1.9,2.9,2.8,4.4c0.9,1.5,1.6,3.1,2.4,4.7c0.4,0.8,0.7,1.6,1,2.4c0.6,1.6,1.2,3.3,1.6,5c0.5,1.7,0.8,3.5,1.1,5.2
			c0.3,1.8,0.5,3.6,0.6,5.4c0,0.9,0.1,1.8,0.1,2.7c0,29.5-25.1,53.7-55.9,53.7h33.1c18.9-10.9,31.6-30.9,31.6-53.7
			c0-33.5-27.4-60.9-61.7-62.4c-3.7-19-13.4-36.4-28-49.6c-16.6-15-38-23.2-60.3-23.2c-22.3,0-43.7,8.2-60.3,23.2
			c-14.6,13.1-24.4,30.4-28.1,49.4c-22.6,1-42.2,13.2-53,31v31.5C24.4,253.8,49.5,229.6,80.4,229.6z"/>
	</g>
</g>
<path class="st1" d="M108.7,348.3l-10.7,25c-0.9,1.7-1.3,3.6-1.3,5.5c0,6.7,5.4,12.1,12.1,12.1s12.1-5.4,12.1-12.1
	c0-1.9-0.5-3.8-1.3-5.5L108.7,348.3z"/>
<path class="st1" d="M165.8,348.3l-10.7,25c-0.9,1.7-1.3,3.6-1.3,5.5c0,6.7,5.4,12.1,12.1,12.1c6.7,0,12.1-5.4,12.1-12.1
	c0-1.9-0.5-3.8-1.3-5.5L165.8,348.3z"/>
<path class="st1" d="M222.9,348.3l-10.7,25c-0.9,1.7-1.3,3.6-1.3,5.5c0,6.7,5.4,12.1,12.1,12.1c6.7,0,12.1-5.4,12.1-12.1
	c0-1.9-0.5-3.8-1.3-5.5L222.9,348.3z"/>
</svg>
