<?xml version="1.0" encoding="utf-8"?>
<!-- Generator: Adobe Illustrator 22.0.1, SVG Export Plug-In . SVG Version: 6.00 Build 0)  -->
<svg version="1.1" id="Calque_1" xmlns="http://www.w3.org/2000/svg" xmlns:xlink="http://www.w3.org/1999/xlink" x="0px" y="0px"
	 viewBox="0 0 535 299.9" style="enable-background:new 0 0 535 299.9;" xml:space="preserve">
<style type="text/css">
	.st0{fill:#FF7900;}
	.st1{fill:#FFFFFF;}
	.st2{fill:none;stroke:#000000;stroke-width:27;stroke-linecap:round;stroke-linejoin:round;stroke-miterlimit:10;}
	.st3{fill:none;}
</style>
<path class="st0" d="M335,160.9c0,0.7,0,1.3,0,2c0,0.5,0,0.9,0,1.4c0,0.5,0,1-0.1,1.4c0,0.7-0.1,1.3-0.1,1.9
	c-0.1,0.7-0.1,1.5-0.2,2.2c-0.3,3-0.8,5.8-1.5,8.7c0,0,0,0,0,0c-1.6,6.6-4,12.9-7.1,18.7c-12.9,24-38.3,40.3-67.5,40.3H92.7
	C41.5,237.3,0,195.6,0,144.3C0,97.2,35,58.2,80.4,52c17.5-31,50.8-52,89-52C220,0,262,36.8,270.2,85.1c15.4,2.4,29.4,9.4,40.3,19.5
	c10.6,9.9,18.4,22.7,22.1,37.1h0c0.4,1.5,0.7,2.9,1,4.4c0,0.2,0.1,0.4,0.1,0.6c0.1,0.6,0.2,1.3,0.3,1.9c0.1,0.6,0.2,1.1,0.2,1.7
	c0.1,0.4,0.1,0.8,0.2,1.2c0.2,1.3,0.3,2.7,0.4,4.1c0,0.2,0,0.4,0,0.6c0,0.6,0.1,1.2,0.1,1.8c0,0.1,0,0.2,0,0.4
	C335,159.3,335,160.1,335,160.9z"/>
<path class="st1" d="M186.7,212.7c-3.3,0-6.4-1.9-7.8-5l-51-111.3l-51,111.3c-2,4.3-7.1,6.2-11.4,4.3c-4.3-2-6.2-7.1-4.3-11.4
	L120,72c1.4-3.1,4.5-5,7.8-5c3.4,0,6.4,2,7.8,5l58.8,128.5c2,4.3,0.1,9.5-4.3,11.4C189.1,212.4,187.9,212.7,186.7,212.7z"/>
<path class="st1" d="M249.9,213c-24.8,0-45-20.2-45-45v-60.4c0-4.8,3.9-8.6,8.6-8.6s8.6,3.9,8.6,8.6V168c0,15.3,12.4,27.7,27.7,27.7
	s27.7-12.4,27.7-27.7v-60.2c0-4.8,3.9-8.6,8.6-8.6c4.8,0,8.6,3.9,8.6,8.6V168C294.9,192.8,274.7,213,249.9,213z"/>
<path class="st0" d="M481.8,213c-29.3,0-53.2-23.8-53.2-53.2c0-29.3,23.8-53.2,53.2-53.2s53.2,23.8,53.2,53.2c0,2.3-0.9,4.5-2.5,6.1
	c-1.6,1.6-3.8,2.5-6.1,2.5c0,0,0,0,0,0l-79.4-0.2c3.8,15.7,18,27.5,34.9,27.5c4.8,0,8.6,3.9,8.6,8.6S486.6,213,481.8,213z M447,151
	l69.7,0.1c-3.9-15.6-18-27.3-34.9-27.3C465.1,123.9,450.9,135.5,447,151z"/>
<path class="st1" d="M327.7,159.8c0-6.6,1.8-12.7,4.9-18v0c-3.7-14.5-11.5-27.3-22.1-37.1v55.5c0,0.1,0,0.2,0,0.3
	c0.2,14.3,6,27.3,15.4,36.8c3.1-5.8,5.5-12.1,7.1-18.7c0,0,0,0,0,0c0,0,0,0,0,0C329.6,173,327.7,166.7,327.7,159.8z"/>
<polyline class="st2" points="-19.1,-274.7 73,-475.8 165,-274.7 "/>
<path class="st2" d="M320.9-425.4v94.2c0,31.4-25.5,56.9-56.9,56.9s-56.9-25.5-56.9-56.9v-94.6"/>
<circle class="st2" cx="442" cy="-343.9" r="69.7"/>
<path class="st2" d="M627-274.2c-38.5,0-69.7-31.2-69.7-69.7s31.2-69.7,69.7-69.7s69.7,31.2,69.7,69.7l-139.2-0.3"/>
<line class="st2" x1="372.3" y1="-460.7" x2="372.3" y2="-343.5"/>
<g>
	<path class="st3" d="M399.5,159.8c0,19.8-16.1,35.9-35.9,35.9c-0.4,0-0.8,0-1.1,0c-0.5,0-0.9,0-1.3-0.1c-0.3,0-0.6,0-0.9-0.1
		c-0.5,0-1-0.1-1.5-0.2c-0.3,0-0.7-0.1-1-0.1c-1.1-0.2-2.2-0.4-3.3-0.7c-0.2-0.1-0.5-0.1-0.8-0.2c-2.5-0.7-4.8-1.7-7-2.8
		c-0.3-0.1-0.5-0.3-0.8-0.5c-0.5-0.3-0.9-0.5-1.4-0.8c-0.6-0.4-1.1-0.7-1.7-1.1c0,0,0,0-0.1,0c-1.2-0.9-2.4-1.8-3.5-2.8
		c-0.3-0.3-0.6-0.5-0.8-0.8c-0.3-0.3-0.5-0.5-0.8-0.8c0,0-0.1-0.1-0.1-0.1c-0.5-0.5-0.9-1-1.4-1.5c-0.5-0.6-0.9-1.1-1.4-1.7
		c-0.2-0.3-0.5-0.6-0.7-1c-0.2-0.3-0.4-0.6-0.6-0.9c-0.2-0.3-0.4-0.6-0.6-0.9c0,0,0,0,0,0c0.7-2.8,1.2-5.7,1.5-8.6
		c0.1-0.7,0.2-1.5,0.2-2.2c0.1-0.6,0.1-1.3,0.1-1.9c0-0.5,0.1-1,0.1-1.4c0-0.5,0-0.9,0-1.4c0-0.6,0-1.3,0-2c0-0.8,0-1.5,0-2.3
		c0-0.1,0-0.3,0-0.4c0-0.6,0-1.2-0.1-1.8c0-0.2,0-0.4,0-0.6c-0.1-1.4-0.2-2.7-0.4-4.1c0-0.4-0.1-0.8-0.2-1.2
		c-0.1-0.6-0.1-1.1-0.2-1.7c-0.1-0.6-0.2-1.3-0.3-1.9c0-0.2-0.1-0.4-0.1-0.6c-0.3-1.5-0.6-3-1-4.4v0h0c0.2-0.3,0.4-0.7,0.6-1
		c0.4-0.6,0.8-1.3,1.3-1.9c2-2.8,4.5-5.3,7.2-7.4c0.3-0.2,0.6-0.5,0.9-0.7c0.1-0.1,0.2-0.1,0.3-0.2c0.5-0.3,0.9-0.7,1.4-1
		c0.5-0.3,1-0.6,1.5-0.9c0.5-0.3,1-0.6,1.5-0.8c1.2-0.6,2.4-1.1,3.6-1.6c0.2-0.1,0.5-0.2,0.8-0.3c0.7-0.3,1.5-0.5,2.2-0.7
		c0.2-0.1,0.4-0.1,0.7-0.2c1.1-0.3,2.2-0.5,3.2-0.7c0.3,0,0.6-0.1,0.9-0.1c0.5-0.1,0.9-0.1,1.4-0.2c0.3,0,0.7-0.1,1-0.1
		c0.8-0.1,1.7-0.1,2.6-0.1C383.4,123.9,399.5,140,399.5,159.8z"/>
	<path class="st0" d="M363.6,106.7c-13.8,0-26.4,5.3-35.9,14V85.2c0-4.8-3.9-8.6-8.6-8.6s-8.6,3.9-8.6,8.6v19.5
		c10.6,9.8,18.4,22.6,22.1,37.1c6.2-10.7,17.8-17.9,31-17.9c19.8,0,35.9,16.1,35.9,35.9c0,19.8-16.1,35.9-35.9,35.9
		c-13,0-24.4-6.9-30.7-17.3c-1.6,6.6-3.9,12.9-7.1,18.7c9.6,9.8,23,15.8,37.8,15.8c29.3,0,53.2-23.8,53.2-53.2
		C416.8,130.5,392.9,106.7,363.6,106.7z"/>
</g>
<circle class="st0" cx="526" cy="204.3" r="9"/>
<g>
	<path class="st0" d="M13.3,294.2l8.5-24.5h4.3l-11,29.7h-3.5l-11-29.7h4.3L13.3,294.2z"/>
	<path class="st0" d="M27.5,288.2c0-2.2,0.4-4.1,1.3-5.8c0.9-1.7,2-3.1,3.6-4c1.5-0.9,3.2-1.4,5.2-1.4c3,0,5.4,1,7.3,3.1
		s2.8,4.9,2.8,8.3v0.3c0,2.2-0.4,4.1-1.2,5.8c-0.8,1.7-2,3-3.5,4c-1.5,1-3.3,1.4-5.3,1.4c-3,0-5.4-1-7.3-3.1s-2.8-4.8-2.8-8.3V288.2
		z M31.3,288.6c0,2.5,0.6,4.4,1.7,5.9c1.1,1.5,2.7,2.2,4.6,2.2c1.9,0,3.4-0.8,4.6-2.3c1.1-1.5,1.7-3.6,1.7-6.3
		c0-2.4-0.6-4.4-1.7-5.9c-1.2-1.5-2.7-2.3-4.6-2.3c-1.9,0-3.4,0.7-4.5,2.2C31.9,283.8,31.3,285.9,31.3,288.6z"/>
	<path class="st0" d="M66,297.3c-1.5,1.7-3.6,2.6-6.5,2.6c-2.4,0-4.1-0.7-5.4-2.1c-1.2-1.4-1.9-3.4-1.9-6.1v-14.4h3.8v14.3
		c0,3.3,1.4,5,4.1,5c2.9,0,4.8-1.1,5.8-3.2v-16.1h3.8v22.1h-3.6L66,297.3z"/>
	<path class="st0" d="M88.3,293.6c0-1-0.4-1.8-1.2-2.4c-0.8-0.6-2.1-1.1-4-1.5c-1.9-0.4-3.4-0.9-4.6-1.5c-1.1-0.6-2-1.3-2.5-2
		c-0.5-0.8-0.8-1.7-0.8-2.8c0-1.8,0.8-3.3,2.3-4.6c1.5-1.3,3.5-1.9,5.9-1.9c2.5,0,4.5,0.6,6.1,1.9c1.6,1.3,2.3,2.9,2.3,5h-3.8
		c0-1-0.4-1.9-1.3-2.7c-0.9-0.7-2-1.1-3.3-1.1c-1.4,0-2.4,0.3-3.2,0.9c-0.8,0.6-1.2,1.4-1.2,2.3c0,0.9,0.4,1.6,1.1,2.1
		c0.7,0.5,2,0.9,3.9,1.3c1.9,0.4,3.4,0.9,4.6,1.5c1.2,0.6,2,1.3,2.6,2.1c0.6,0.8,0.8,1.8,0.8,3c0,2-0.8,3.6-2.4,4.7
		c-1.6,1.2-3.6,1.8-6.1,1.8c-1.8,0-3.3-0.3-4.7-0.9s-2.4-1.5-3.2-2.6s-1.2-2.3-1.2-3.6h3.8c0.1,1.3,0.6,2.3,1.5,3
		c0.9,0.7,2.2,1.1,3.7,1.1c1.4,0,2.6-0.3,3.4-0.9C87.9,295.3,88.3,294.6,88.3,293.6z"/>
	<path class="st0" d="M121,299.4c-0.2-0.4-0.4-1.2-0.5-2.3c-1.8,1.8-3.9,2.7-6.3,2.7c-2.2,0-4-0.6-5.4-1.8s-2.1-2.8-2.1-4.7
		c0-2.3,0.9-4.1,2.6-5.4c1.7-1.3,4.2-1.9,7.4-1.9h3.7v-1.7c0-1.3-0.4-2.4-1.2-3.2c-0.8-0.8-2-1.2-3.5-1.2c-1.3,0-2.5,0.3-3.4,1
		s-1.4,1.5-1.4,2.5h-3.8c0-1.1,0.4-2.2,1.2-3.2c0.8-1,1.8-1.8,3.2-2.4c1.3-0.6,2.8-0.9,4.4-0.9c2.5,0,4.5,0.6,6,1.9
		c1.4,1.3,2.2,3,2.2,5.3v10.2c0,2,0.3,3.6,0.8,4.8v0.3H121z M114.7,296.6c1.2,0,2.3-0.3,3.4-0.9c1.1-0.6,1.8-1.4,2.3-2.4v-4.5h-3
		c-4.6,0-6.9,1.4-6.9,4.1c0,1.2,0.4,2.1,1.2,2.8S113.5,296.6,114.7,296.6z"/>
	<path class="st0" d="M134.2,299.4h-3.8v-31.4h3.8V299.4z"/>
	<path class="st0" d="M144.4,299.4h-3.8v-31.4h3.8V299.4z"/>
	<path class="st0" d="M159.6,299.9c-3,0-5.4-1-7.3-3c-1.9-2-2.8-4.6-2.8-7.9v-0.7c0-2.2,0.4-4.1,1.3-5.9c0.8-1.7,2-3.1,3.5-4
		c1.5-1,3.1-1.5,4.9-1.5c2.9,0,5.1,0.9,6.7,2.8c1.6,1.9,2.4,4.6,2.4,8.1v1.6h-15c0.1,2.2,0.7,3.9,1.9,5.3c1.2,1.3,2.8,2,4.6,2
		c1.3,0,2.5-0.3,3.4-0.8c0.9-0.5,1.7-1.3,2.4-2.2l2.3,1.8C166.1,298.4,163.3,299.9,159.6,299.9z M159.1,280c-1.5,0-2.8,0.6-3.8,1.7
		c-1,1.1-1.7,2.7-1.9,4.7h11.1v-0.3c-0.1-1.9-0.6-3.4-1.6-4.5C161.9,280.6,160.7,280,159.1,280z"/>
	<path class="st0" d="M176.1,296.4H189v3.1h-17.5v-2.8l12.2-16.2h-12v-3.1h16.7v2.7L176.1,296.4z"/>
	<path class="st0" d="M217.3,299.4c-0.2-0.4-0.4-1.2-0.5-2.3c-1.8,1.8-3.9,2.7-6.3,2.7c-2.2,0-4-0.6-5.4-1.8s-2.1-2.8-2.1-4.7
		c0-2.3,0.9-4.1,2.6-5.4c1.7-1.3,4.2-1.9,7.4-1.9h3.7v-1.7c0-1.3-0.4-2.4-1.2-3.2c-0.8-0.8-2-1.2-3.5-1.2c-1.3,0-2.5,0.3-3.4,1
		s-1.4,1.5-1.4,2.5h-3.8c0-1.1,0.4-2.2,1.2-3.2c0.8-1,1.8-1.8,3.2-2.4c1.3-0.6,2.8-0.9,4.4-0.9c2.5,0,4.5,0.6,6,1.9
		c1.4,1.3,2.2,3,2.2,5.3v10.2c0,2,0.3,3.6,0.8,4.8v0.3H217.3z M211,296.6c1.2,0,2.3-0.3,3.4-0.9c1.1-0.6,1.8-1.4,2.3-2.4v-4.5h-3
		c-4.6,0-6.9,1.4-6.9,4.1c0,1.2,0.4,2.1,1.2,2.8S209.8,296.6,211,296.6z"/>
	<path class="st0" d="M225.5,288.2c0-3.4,0.8-6.1,2.4-8.2s3.7-3.1,6.3-3.1c2.6,0,4.6,0.9,6.1,2.7v-11.5h3.8v31.4h-3.5l-0.2-2.4
		c-1.5,1.9-3.6,2.8-6.3,2.8c-2.6,0-4.6-1-6.3-3.1s-2.4-4.8-2.4-8.2V288.2z M229.3,288.6c0,2.5,0.5,4.5,1.6,5.9
		c1,1.4,2.5,2.1,4.3,2.1c2.4,0,4.1-1.1,5.2-3.2v-10.2c-1.1-2.1-2.9-3.1-5.2-3.1c-1.9,0-3.3,0.7-4.3,2.1
		C229.8,283.7,229.3,285.8,229.3,288.6z"/>
	<path class="st0" d="M249,288.2c0-2.2,0.4-4.1,1.3-5.8c0.9-1.7,2-3.1,3.6-4c1.5-0.9,3.2-1.4,5.2-1.4c3,0,5.4,1,7.3,3.1
		s2.8,4.9,2.8,8.3v0.3c0,2.2-0.4,4.1-1.2,5.8c-0.8,1.7-2,3-3.5,4c-1.5,1-3.3,1.4-5.3,1.4c-3,0-5.4-1-7.3-3.1s-2.8-4.8-2.8-8.3V288.2
		z M252.8,288.6c0,2.5,0.6,4.4,1.7,5.9c1.1,1.5,2.7,2.2,4.6,2.2c1.9,0,3.4-0.8,4.6-2.3c1.1-1.5,1.7-3.6,1.7-6.3
		c0-2.4-0.6-4.4-1.7-5.9c-1.2-1.5-2.7-2.3-4.6-2.3c-1.9,0-3.4,0.7-4.5,2.2C253.4,283.8,252.8,285.9,252.8,288.6z"/>
	<path class="st0" d="M284.5,280.7c-0.6-0.1-1.2-0.1-1.9-0.1c-2.5,0-4.2,1.1-5,3.2v15.7h-3.8v-22.1h3.7l0.1,2.6c1.2-2,3-3,5.3-3
		c0.7,0,1.3,0.1,1.7,0.3V280.7z"/>
	<path class="st0" d="M296.8,299.9c-3,0-5.4-1-7.3-3c-1.9-2-2.8-4.6-2.8-7.9v-0.7c0-2.2,0.4-4.1,1.3-5.9c0.8-1.7,2-3.1,3.5-4
		c1.5-1,3.1-1.5,4.9-1.5c2.9,0,5.1,0.9,6.7,2.8c1.6,1.9,2.4,4.6,2.4,8.1v1.6h-15c0.1,2.2,0.7,3.9,1.9,5.3c1.2,1.3,2.8,2,4.6,2
		c1.3,0,2.5-0.3,3.4-0.8c0.9-0.5,1.7-1.3,2.4-2.2l2.3,1.8C303.3,298.4,300.5,299.9,296.8,299.9z M296.3,280c-1.5,0-2.8,0.6-3.8,1.7
		c-1,1.1-1.7,2.7-1.9,4.7h11.1v-0.3c-0.1-1.9-0.6-3.4-1.6-4.5C299.1,280.6,297.9,280,296.3,280z"/>
	<path class="st0" d="M320.4,280.7c-0.6-0.1-1.2-0.1-1.9-0.1c-2.5,0-4.2,1.1-5,3.2v15.7h-3.8v-22.1h3.7l0.1,2.6c1.2-2,3-3,5.3-3
		c0.7,0,1.3,0.1,1.7,0.3V280.7z"/>
	<path class="st0" d="M341.6,294.3l5.5-17h3.9l-7.9,22.1h-2.9l-8-22.1h3.9L341.6,294.3z"/>
	<path class="st0" d="M353.2,288.2c0-2.2,0.4-4.1,1.3-5.8c0.9-1.7,2-3.1,3.6-4c1.5-0.9,3.2-1.4,5.2-1.4c3,0,5.4,1,7.3,3.1
		s2.8,4.9,2.8,8.3v0.3c0,2.2-0.4,4.1-1.2,5.8c-0.8,1.7-2,3-3.5,4c-1.5,1-3.3,1.4-5.3,1.4c-3,0-5.4-1-7.3-3.1s-2.8-4.8-2.8-8.3V288.2
		z M357,288.6c0,2.5,0.6,4.4,1.7,5.9c1.1,1.5,2.7,2.2,4.6,2.2c1.9,0,3.4-0.8,4.6-2.3c1.1-1.5,1.7-3.6,1.7-6.3c0-2.4-0.6-4.4-1.7-5.9
		c-1.2-1.5-2.7-2.3-4.6-2.3c-1.9,0-3.4,0.7-4.5,2.2C357.6,283.8,357,285.9,357,288.6z"/>
	<path class="st0" d="M390.9,293.6c0-1-0.4-1.8-1.2-2.4c-0.8-0.6-2.1-1.1-4-1.5c-1.9-0.4-3.4-0.9-4.6-1.5s-2-1.3-2.5-2
		c-0.5-0.8-0.8-1.7-0.8-2.8c0-1.8,0.8-3.3,2.3-4.6c1.5-1.3,3.5-1.9,5.9-1.9c2.5,0,4.5,0.6,6.1,1.9c1.6,1.3,2.3,2.9,2.3,5h-3.8
		c0-1-0.4-1.9-1.3-2.7c-0.9-0.7-2-1.1-3.3-1.1c-1.4,0-2.5,0.3-3.2,0.9c-0.8,0.6-1.2,1.4-1.2,2.3c0,0.9,0.4,1.6,1.1,2.1
		c0.7,0.5,2,0.9,3.9,1.3s3.4,0.9,4.6,1.5c1.2,0.6,2,1.3,2.6,2.1c0.6,0.8,0.8,1.8,0.8,3c0,2-0.8,3.6-2.4,4.7
		c-1.6,1.2-3.6,1.8-6.1,1.8c-1.8,0-3.3-0.3-4.7-0.9s-2.4-1.5-3.2-2.6s-1.2-2.3-1.2-3.6h3.8c0.1,1.3,0.6,2.3,1.5,3s2.2,1.1,3.7,1.1
		c1.4,0,2.6-0.3,3.4-0.9C390.5,295.3,390.9,294.6,390.9,293.6z"/>
	<path class="st0" d="M413.5,277.4l0.1,2.5c1.6-1.9,3.8-2.9,6.6-2.9c3.1,0,5.2,1.2,6.3,3.6c0.7-1.1,1.7-1.9,2.9-2.6
		c1.2-0.7,2.6-1,4.2-1c4.8,0,7.3,2.6,7.4,7.7v14.8h-3.8v-14.6c0-1.6-0.4-2.8-1.1-3.5c-0.7-0.8-1.9-1.2-3.6-1.2
		c-1.4,0-2.6,0.4-3.5,1.3s-1.5,2-1.6,3.4v14.7h-3.8V285c0-3.2-1.6-4.8-4.7-4.8c-2.5,0-4.2,1.1-5.1,3.2v16.1H410v-22.1H413.5z"/>
	<path class="st0" d="M460.3,299.4c-0.2-0.4-0.4-1.2-0.5-2.3c-1.8,1.8-3.9,2.7-6.3,2.7c-2.2,0-4-0.6-5.4-1.8s-2.1-2.8-2.1-4.7
		c0-2.3,0.9-4.1,2.6-5.4c1.7-1.3,4.2-1.9,7.4-1.9h3.7v-1.7c0-1.3-0.4-2.4-1.2-3.2c-0.8-0.8-2-1.2-3.5-1.2c-1.3,0-2.5,0.3-3.4,1
		s-1.4,1.5-1.4,2.5h-3.8c0-1.1,0.4-2.2,1.2-3.2c0.8-1,1.8-1.8,3.2-2.4c1.3-0.6,2.8-0.9,4.4-0.9c2.5,0,4.5,0.6,6,1.9
		c1.4,1.3,2.2,3,2.2,5.3v10.2c0,2,0.3,3.6,0.8,4.8v0.3H460.3z M454,296.6c1.2,0,2.3-0.3,3.4-0.9c1.1-0.6,1.8-1.4,2.3-2.4v-4.5h-3
		c-4.6,0-6.9,1.4-6.9,4.1c0,1.2,0.4,2.1,1.2,2.8S452.8,296.6,454,296.6z"/>
	<path class="st0" d="M474.5,272v5.4h4.1v2.9h-4.1V294c0,0.9,0.2,1.6,0.6,2c0.4,0.4,1,0.7,1.9,0.7c0.4,0,1-0.1,1.8-0.2v3
		c-1,0.3-2,0.4-2.9,0.4c-1.7,0-3-0.5-3.8-1.5c-0.9-1-1.3-2.5-1.3-4.3v-13.7h-4v-2.9h4V272H474.5z"/>
	<path class="st0" d="M483.1,271.5c0-0.6,0.2-1.1,0.6-1.6c0.4-0.4,0.9-0.6,1.7-0.6s1.3,0.2,1.7,0.6c0.4,0.4,0.6,0.9,0.6,1.6
		s-0.2,1.1-0.6,1.5c-0.4,0.4-0.9,0.6-1.7,0.6s-1.3-0.2-1.7-0.6C483.3,272.6,483.1,272.1,483.1,271.5z M487.2,299.4h-3.8v-22.1h3.8
		V299.4z"/>
	<path class="st0" d="M496.8,277.4l0.1,2.8c1.7-2.1,3.9-3.2,6.6-3.2c4.7,0,7,2.6,7.1,7.9v14.6h-3.8v-14.6c0-1.6-0.4-2.8-1.1-3.5
		c-0.7-0.8-1.8-1.1-3.3-1.1c-1.2,0-2.3,0.3-3.2,1c-0.9,0.7-1.6,1.5-2.2,2.6v15.7h-3.8v-22.1H496.8z"/>
	<path class="st0" d="M529.2,293.6c0-1-0.4-1.8-1.2-2.4c-0.8-0.6-2.1-1.1-4-1.5c-1.9-0.4-3.4-0.9-4.6-1.5s-2-1.3-2.5-2
		c-0.5-0.8-0.8-1.7-0.8-2.8c0-1.8,0.8-3.3,2.3-4.6c1.5-1.3,3.5-1.9,5.9-1.9c2.5,0,4.5,0.6,6.1,1.9c1.6,1.3,2.3,2.9,2.3,5h-3.8
		c0-1-0.4-1.9-1.3-2.7c-0.9-0.7-2-1.1-3.3-1.1c-1.4,0-2.5,0.3-3.2,0.9c-0.8,0.6-1.2,1.4-1.2,2.3c0,0.9,0.4,1.6,1.1,2.1
		c0.7,0.5,2,0.9,3.9,1.3s3.4,0.9,4.6,1.5c1.2,0.6,2,1.3,2.6,2.1c0.6,0.8,0.8,1.8,0.8,3c0,2-0.8,3.6-2.4,4.7
		c-1.6,1.2-3.6,1.8-6.1,1.8c-1.8,0-3.3-0.3-4.7-0.9s-2.4-1.5-3.2-2.6s-1.2-2.3-1.2-3.6h3.8c0.1,1.3,0.6,2.3,1.5,3s2.2,1.1,3.7,1.1
		c1.4,0,2.6-0.3,3.4-0.9C528.7,295.3,529.2,294.6,529.2,293.6z"/>
</g>
</svg>
