<?xml version="1.0" encoding="utf-8"?>
<!-- Generator: Adobe Illustrator 22.0.1, SVG Export Plug-In . SVG Version: 6.00 Build 0)  -->
<svg version="1.1" id="Calque_1" xmlns="http://www.w3.org/2000/svg" xmlns:xlink="http://www.w3.org/1999/xlink" x="0px" y="0px"
	 viewBox="0 0 256 256" style="enable-background:new 0 0 256 256;" xml:space="preserve">
<style type="text/css">
	.st0{fill:#FF7900;}
	.st1{opacity:0.81;fill:#FF7900;}
	.st2{opacity:0.46;fill:#FF7900;}
	.st3{opacity:0.2;fill:#FF7900;}
</style>
<path class="st0" d="M104.4,202c-3.5,0-6.8-1.4-9.2-3.8c-2.6-2.6-3.8-5.9-3.8-9.2c0-3.5,1.4-6.8,3.8-9.2l19.7-19.7v-36.4l-31.5,18.3
	l-7.3,26.8c-0.9,3.3-3.1,6.1-5.9,8c-3.1,1.9-6.6,2.4-10.1,1.4c-3.3-0.9-6.1-3.1-8-5.9c-1.9-3.1-2.4-6.6-1.4-10.1L56,143l-19.5-5.4
	c-3.3-0.9-6.1-3.1-8-5.9c-1.9-3.1-2.4-6.6-1.4-10.1c0.9-3.3,3.1-6.1,5.9-8c3.1-1.9,6.6-2.4,10.1-1.4l27,7.3l31.7-18.6L70.3,82.8
	l-26.8,7.1c-7.1,1.9-14.1-2.4-16-9.4c-0.9-3.3-0.5-6.8,1.4-9.9c1.9-3.1,4.7-5.2,8-6.1l19.3-5.2l-5.4-19.5c-1.9-7.1,2.4-14.3,9.4-16
	c3.3-0.9,6.8-0.5,9.9,1.4c3.1,1.9,5.2,4.7,6.1,8l7.3,27L115,78.4V42L95.4,22.4c-2.6-2.6-3.8-5.9-3.8-9.2s1.4-6.8,3.8-9.2
	c2.6-2.6,5.9-3.8,9.2-3.8s6.8,1.4,9.2,3.8l14.1,14.1l14.3-14.3c5.2-5.2,13.4-5.2,18.6,0c2.6,2.6,3.8,5.9,3.8,9.2
	c0,3.5-1.4,6.8-3.8,9.2L141,42v36.2l31.5-18.3l7.3-26.8c0.9-3.3,3.1-6.1,5.9-8c3.1-1.9,6.6-2.4,10.1-1.4c3.3,0.9,6.1,3.1,8,5.9
	c1.9,3.1,2.4,6.6,1.4,10.1L200,58.9l19.5,5.4c3.3,0.9,6.1,3.1,8,5.9c1.9,3.1,2.4,6.6,1.4,10.1c-0.9,3.3-3.1,6.1-5.9,8
	c-3.1,1.9-6.6,2.4-10.1,1.4l-27-7.3l-31.7,18.6l31.5,18.1l26.8-7.3c6.8-1.9,13.9,2.4,16,9.6c0.9,3.5,0.5,7.1-1.4,10.1
	c-1.9,3.1-4.7,5.2-8,6.1l-19.3,5.2l5.4,19.5c0.9,3.3,0.5,7.1-1.4,9.9c-1.9,3.1-4.7,5.2-8,6.1c-3.3,0.9-6.8,0.5-9.9-1.4
	c-3.1-1.9-5.2-4.7-6.1-8l-7.3-27L141,123.7v36.2l19.5,19.5c2.6,2.6,3.8,5.9,3.8,9.2c0,3.5-1.4,6.8-3.8,9.2c-5.2,5.2-13.4,5.2-18.6,0
	l-14.1-14.1L113.5,198C111.2,200.6,107.9,202,104.4,202z"/>
<path class="st1" d="M215.3,250.3c-1.1,0-2.2-0.5-3-1.2c-0.8-0.8-1.2-1.9-1.2-3c0-1.1,0.5-2.2,1.2-3l6.4-6.4v-11.8l-10.2,6l-2.4,8.7
	c-0.3,1.1-1,2-1.9,2.6c-1,0.6-2.1,0.8-3.3,0.5c-1.1-0.3-2-1-2.6-1.9c-0.6-1-0.8-2.1-0.5-3.3l1.7-6.3l-6.3-1.8c-1.1-0.3-2-1-2.6-1.9
	c-0.6-1-0.8-2.1-0.5-3.3c0.3-1.1,1-2,1.9-2.6c1-0.6,2.1-0.8,3.3-0.5l8.8,2.4l10.3-6l-10.2-5.9l-8.7,2.3c-2.3,0.6-4.6-0.8-5.2-3.1
	c-0.3-1.1-0.2-2.2,0.5-3.2s1.5-1.7,2.6-2l6.3-1.7l-1.8-6.3c-0.6-2.3,0.8-4.7,3.1-5.2c1.1-0.3,2.2-0.2,3.2,0.5c1,0.6,1.7,1.5,2,2.6
	l2.4,8.8l10.2,5.9v-11.8l-6.3-6.3c-0.8-0.8-1.2-1.9-1.2-3c0-1.1,0.5-2.2,1.2-3c0.8-0.8,1.9-1.2,3-1.2c1.1,0,2.2,0.5,3,1.2l4.6,4.6
	l4.7-4.7c1.7-1.7,4.4-1.7,6,0c0.8,0.8,1.2,1.9,1.2,3c0,1.1-0.5,2.2-1.2,3l-6.4,6.4V210l10.2-6l2.4-8.7c0.3-1.1,1-2,1.9-2.6
	c1-0.6,2.1-0.8,3.3-0.5c1.1,0.3,2,1,2.6,1.9c0.6,1,0.8,2.1,0.5,3.3l-1.7,6.3l6.3,1.8c1.1,0.3,2,1,2.6,1.9c0.6,1,0.8,2.1,0.5,3.3
	c-0.3,1.1-1,2-1.9,2.6c-1,0.6-2.1,0.8-3.3,0.5l-8.8-2.4l-10.3,6l10.2,5.9l8.7-2.4c2.2-0.6,4.5,0.8,5.2,3.1c0.3,1.1,0.2,2.3-0.5,3.3
	c-0.6,1-1.5,1.7-2.6,2l-6.3,1.7l1.8,6.3c0.3,1.1,0.2,2.3-0.5,3.2c-0.6,1-1.5,1.7-2.6,2c-1.1,0.3-2.2,0.2-3.2-0.5
	c-1-0.6-1.7-1.5-2-2.6l-2.4-8.8l-10.2-5.9v11.8l6.3,6.3c0.8,0.8,1.2,1.9,1.2,3c0,1.1-0.5,2.2-1.2,3c-1.7,1.7-4.4,1.7-6,0l-4.6-4.6
	l-4.7,4.7C217.6,249.8,216.5,250.3,215.3,250.3z"/>
<path class="st2" d="M20.4,222.4c-0.9,0-1.7-0.4-2.3-1c-0.7-0.7-1-1.5-1-2.3c0-0.9,0.4-1.7,1-2.3l5-5v-9.3l-8,4.7l-1.9,6.8
	c-0.2,0.8-0.8,1.6-1.5,2c-0.8,0.5-1.7,0.6-2.6,0.4c-0.8-0.2-1.6-0.8-2-1.5c-0.5-0.8-0.6-1.7-0.4-2.6l1.3-4.9l-5-1.4
	c-0.8-0.2-1.6-0.8-2-1.5c-0.5-0.8-0.6-1.7-0.4-2.6c0.2-0.8,0.8-1.6,1.5-2c0.8-0.5,1.7-0.6,2.6-0.4l6.9,1.9l8.1-4.7l-8-4.6l-6.8,1.8
	c-1.8,0.5-3.6-0.6-4.1-2.4c-0.2-0.8-0.1-1.7,0.4-2.5c0.5-0.8,1.2-1.3,2-1.6l4.9-1.3l-1.4-5c-0.5-1.8,0.6-3.6,2.4-4.1
	c0.8-0.2,1.7-0.1,2.5,0.4c0.8,0.5,1.3,1.2,1.6,2l1.9,6.9l8,4.6v-9.3l-5-5c-0.7-0.7-1-1.5-1-2.3s0.4-1.7,1-2.3c0.7-0.7,1.5-1,2.3-1
	s1.7,0.4,2.3,1l3.6,3.6L30,172c1.3-1.3,3.4-1.3,4.7,0c0.7,0.7,1,1.5,1,2.3c0,0.9-0.4,1.7-1,2.3l-5,5v9.2l8-4.7l1.9-6.8
	c0.2-0.8,0.8-1.6,1.5-2c0.8-0.5,1.7-0.6,2.6-0.4c0.8,0.2,1.6,0.8,2,1.5c0.5,0.8,0.6,1.7,0.4,2.6l-1.3,4.9l5,1.4
	c0.8,0.2,1.6,0.8,2,1.5c0.5,0.8,0.6,1.7,0.4,2.6c-0.2,0.8-0.8,1.6-1.5,2c-0.8,0.5-1.7,0.6-2.6,0.4l-6.9-1.9l-8.1,4.7l8,4.6l6.8-1.9
	c1.7-0.5,3.5,0.6,4.1,2.5c0.2,0.9,0.1,1.8-0.4,2.6s-1.2,1.3-2,1.6l-4.9,1.3l1.4,5c0.2,0.8,0.1,1.8-0.4,2.5c-0.5,0.8-1.2,1.3-2,1.6
	s-1.7,0.1-2.5-0.4c-0.8-0.5-1.3-1.2-1.6-2l-1.9-6.9l-8-4.6v9.2l5,5c0.7,0.7,1,1.5,1,2.3c0,0.9-0.4,1.7-1,2.3c-1.3,1.3-3.4,1.3-4.7,0
	l-3.6-3.6l-3.6,3.6C22.1,222,21.3,222.4,20.4,222.4z"/>
<path class="st3" d="M93.8,256c-0.5,0-1-0.2-1.3-0.5c-0.4-0.4-0.5-0.8-0.5-1.3c0-0.5,0.2-1,0.5-1.3l2.8-2.8V245l-4.4,2.6l-1,3.8
	c-0.1,0.5-0.4,0.9-0.8,1.1c-0.4,0.3-0.9,0.3-1.4,0.2c-0.5-0.1-0.9-0.4-1.1-0.8c-0.3-0.4-0.3-0.9-0.2-1.4l0.7-2.7l-2.7-0.8
	c-0.5-0.1-0.9-0.4-1.1-0.8c-0.3-0.4-0.3-0.9-0.2-1.4c0.1-0.5,0.4-0.9,0.8-1.1c0.4-0.3,0.9-0.3,1.4-0.2l3.8,1l4.5-2.6l-4.4-2.5
	l-3.8,1c-1,0.3-2-0.3-2.2-1.3c-0.1-0.5-0.1-1,0.2-1.4c0.3-0.4,0.7-0.7,1.1-0.9l2.7-0.7l-0.8-2.7c-0.3-1,0.3-2,1.3-2.2
	c0.5-0.1,1-0.1,1.4,0.2c0.4,0.3,0.7,0.7,0.9,1.1l1,3.8l4.4,2.5v-5.1l-2.7-2.7c-0.4-0.4-0.5-0.8-0.5-1.3s0.2-1,0.5-1.3
	c0.4-0.4,0.8-0.5,1.3-0.5c0.5,0,1,0.2,1.3,0.5l2,2l2-2c0.7-0.7,1.9-0.7,2.6,0c0.4,0.4,0.5,0.8,0.5,1.3c0,0.5-0.2,1-0.5,1.3l-2.8,2.8
	v5.1l4.4-2.6l1-3.8c0.1-0.5,0.4-0.9,0.8-1.1c0.4-0.3,0.9-0.3,1.4-0.2c0.5,0.1,0.9,0.4,1.1,0.8c0.3,0.4,0.3,0.9,0.2,1.4l-0.7,2.7
	l2.7,0.8c0.5,0.1,0.9,0.4,1.1,0.8c0.3,0.4,0.3,0.9,0.2,1.4c-0.1,0.5-0.4,0.9-0.8,1.1c-0.4,0.3-0.9,0.3-1.4,0.2l-3.8-1l-4.5,2.6
	l4.4,2.5l3.8-1c1-0.3,2,0.3,2.2,1.4c0.1,0.5,0.1,1-0.2,1.4s-0.7,0.7-1.1,0.9l-2.7,0.7l0.8,2.7c0.1,0.5,0.1,1-0.2,1.4
	c-0.3,0.4-0.7,0.7-1.1,0.9c-0.5,0.1-1,0.1-1.4-0.2c-0.4-0.3-0.7-0.7-0.9-1.1l-1-3.8L99,245v5.1l2.7,2.7c0.4,0.4,0.5,0.8,0.5,1.3
	c0,0.5-0.2,1-0.5,1.3c-0.7,0.7-1.9,0.7-2.6,0l-2-2l-2,2C94.8,255.8,94.3,256,93.8,256z"/>
</svg>
