<?xml version="1.0" encoding="utf-8"?>
<!-- Generator: Adobe Illustrator 22.0.1, SVG Export Plug-In . SVG Version: 6.00 Build 0)  -->
<svg version="1.1" id="Calque_1" xmlns="http://www.w3.org/2000/svg" xmlns:xlink="http://www.w3.org/1999/xlink" x="0px" y="0px"
	 viewBox="0 0 256 256" style="enable-background:new 0 0 256 256;" xml:space="preserve">
<style type="text/css">
	.st0{opacity:0.76;}
	.st1{fill:#FF7900;}
	.st2{fill:#FFFFFF;}
</style>
<g>
	<g class="st0">
		<g>
			<g>
				<g>
					<path class="st1" d="M144.4,69.3c-3,1.8-5.9,3.9-8.6,6.3c-5.4,4.9-9.7,10.7-12.7,17.2c-5.7-1.6-11.6-2.4-17.6-2.4
						c-16.2,0-31.8,6-43.9,16.9c-3,2.7-5.8,5.7-8.3,9H40.8c-15.4,0-28-12-28-26.8c0-14.8,12.5-26.8,28-26.8h2.3
						c2.2-20.5,19.5-36.2,40.3-36.2c5,0,9.7,0.9,14.2,2.5c14.1,5.2,24.5,18.1,26.2,33.7h2.3c4,0,7.9,0.8,11.3,2.3
						C139.9,66,142.3,67.5,144.4,69.3z"/>
					<path class="st1" d="M144.4,109.5L144.4,109.5c-0.2-0.2-0.5-0.4-0.7-0.6C143.9,109.1,144.2,109.3,144.4,109.5z"/>
					<path class="st2" d="M144.4,109.5L144.4,109.5c0,0,0.1,0.1,0.1,0.1C144.5,109.6,144.5,109.6,144.4,109.5z"/>
				</g>
			</g>
		</g>
	</g>
	<g class="st0">
		<g>
			<g>
				<g>
					<path class="st1" d="M255.9,142.2c0,17.7-15,32-33.4,32h-9.4c-4.3-11.3-13.2-20.8-25.1-25.9c-5.7-2.4-11.7-3.7-17.9-3.8
						c-1.9-10.6-6.3-20.5-13-29c-1.7-2.2-3.5-4.2-5.5-6.1c-1.2-1.2-2.4-2.3-3.7-3.4c-5.8-4.9-12.4-8.8-19.5-11.4
						c-0.2-0.1-0.3-0.1-0.5-0.2c4.3-9,11.4-16.5,20.1-21.3c1.5-0.8,3-1.6,4.6-2.2c5.8-2.5,12.3-3.9,19-3.9c5.9,0,11.6,1.1,16.9,3
						c16.8,6.3,29.3,21.6,31.3,40.2h2.7c4.8,0,9.4,1,13.5,2.7C247.7,117.9,255.9,129.1,255.9,142.2z"/>
					<path class="st1" d="M144.5,109.6c0,0-0.1-0.1-0.1-0.1c-0.2-0.2-0.5-0.4-0.7-0.6c0.2,0.2,0.5,0.4,0.7,0.6
						C144.5,109.6,144.5,109.6,144.5,109.6z"/>
					<path class="st1" d="M187.6,153.6c-0.5-0.2-1-0.5-1.5-0.7c-0.4-0.2-0.8-0.3-1.2-0.5c0.4,0.2,0.8,0.3,1.2,0.5
						C186.6,153.1,187.1,153.4,187.6,153.6z"/>
					<path class="st2" d="M209.4,178.9c0,0.1,0.1,0.2,0.1,0.3h0C209.5,179.1,209.4,179,209.4,178.9z"/>
				</g>
			</g>
		</g>
	</g>
	<g>
		<g>
			<g>
				<g>
					<path class="st1" d="M187.6,153.6c-0.5-0.2-1-0.5-1.5-0.7c-0.4-0.2-0.8-0.3-1.2-0.5c0.4,0.2,0.8,0.3,1.2,0.5
						C186.6,153.1,187.1,153.4,187.6,153.6z"/>
					<path class="st1" d="M209.5,179.2L209.5,179.2c0-0.1-0.1-0.2-0.1-0.3C209.4,179,209.5,179.1,209.5,179.2z"/>
					<path class="st2" d="M186.1,152.9c-0.4-0.2-0.8-0.3-1.2-0.5C185.2,152.6,185.6,152.8,186.1,152.9c0.5,0.2,1,0.5,1.5,0.7
						C187.1,153.4,186.6,153.1,186.1,152.9z M209.4,178.9c0,0.1,0.1,0.2,0.1,0.3h0C209.5,179.1,209.4,179,209.4,178.9z"/>
					<path class="st1" d="M210.9,189.6c0,0.7,0,1.5-0.1,2.2c0,0.4-0.1,0.7-0.1,1.1c0,0.3,0,0.5-0.1,0.8c0,0.3-0.1,0.7-0.1,1
						c-0.1,0.5-0.2,1.1-0.2,1.6c0,0.2-0.1,0.5-0.1,0.8c-0.1,0.3-0.1,0.7-0.2,1c-0.1,0.3-0.2,0.7-0.2,1v0c0,0.2-0.1,0.4-0.1,0.5
						c-0.1,0.3-0.2,0.6-0.2,0.9c-0.2,0.7-0.5,1.5-0.7,2.2c-0.1,0.2-0.2,0.4-0.2,0.6c0,0,0,0.1-0.1,0.2c-0.2,0.5-0.4,0.9-0.6,1.4
						c-0.2,0.5-0.4,0.9-0.6,1.3s-0.4,0.9-0.7,1.3c0,0,0,0,0,0c-0.2,0.4-0.5,0.9-0.7,1.3c-0.2,0.3-0.3,0.6-0.5,0.9
						c-0.2,0.3-0.4,0.6-0.5,0.9c-0.2,0.3-0.4,0.6-0.6,0.9c-0.4,0.6-0.8,1.2-1.3,1.8c-0.2,0.3-0.4,0.5-0.6,0.8
						c-0.2,0.3-0.4,0.5-0.6,0.8c-0.2,0.3-0.5,0.5-0.7,0.8c-0.3,0.3-0.6,0.6-0.9,0.9c-0.9,1-1.8,1.9-2.8,2.7c-0.5,0.4-1,0.8-1.5,1.3
						c-0.5,0.4-1,0.8-1.6,1.2c-0.3,0.2-0.6,0.4-0.9,0.6c-0.5,0.4-1,0.7-1.5,1c-0.3,0.2-0.6,0.4-0.8,0.5c-0.3,0.2-0.6,0.3-0.9,0.5
						c-0.3,0.2-0.6,0.3-0.9,0.5c-0.3,0.2-0.6,0.3-0.9,0.5c-0.3,0.2-0.6,0.3-0.9,0.4c-0.5,0.2-1,0.4-1.5,0.7
						c-0.4,0.2-0.9,0.3-1.3,0.5c-0.3,0.1-0.6,0.2-1,0.3c-0.3,0.1-0.6,0.2-1,0.3c-0.3,0.1-0.7,0.2-1,0.3c-0.3,0.1-0.7,0.2-1,0.3
						c-0.3,0.1-0.7,0.2-1,0.3c-0.7,0.2-1.3,0.3-2,0.4c-0.7,0.1-1.4,0.2-2.1,0.4c-0.3,0-0.7,0.1-1,0.1c-0.3,0.1-0.7,0.1-1,0.1
						c-0.4,0-0.7,0.1-1.1,0.1c-0.4,0-0.7,0.1-1.1,0.1c-0.4,0-0.7,0-1.1,0c-0.2,0-0.4,0-0.5,0H41.3c-0.2,0-0.4,0-0.5,0
						c-0.4,0-0.7,0-1.1,0c-0.4,0-0.7,0-1.1-0.1c-0.4,0-0.7,0-1.1-0.1c-0.4,0-0.7-0.1-1-0.1c-0.3,0-0.7-0.1-1-0.1
						c-0.7-0.1-1.4-0.2-2.1-0.4c-0.6-0.1-1.3-0.3-1.9-0.4c-0.4-0.1-0.7-0.2-1.1-0.3c-0.3-0.1-0.6-0.2-0.9-0.2
						c-0.1,0-0.2-0.1-0.3-0.1c-0.3-0.1-0.5-0.2-0.8-0.3c-0.3-0.1-0.6-0.2-0.9-0.3c-0.1,0-0.2-0.1-0.3-0.1c-0.3-0.1-0.5-0.2-0.8-0.3
						c-0.3-0.1-0.6-0.2-0.9-0.4c-0.6-0.2-1.2-0.5-1.8-0.8h0c-0.3-0.1-0.6-0.3-0.9-0.4c-0.3-0.1-0.6-0.3-0.9-0.5
						c-0.3-0.1-0.6-0.3-0.9-0.5c-0.3-0.2-0.6-0.3-0.9-0.5c0,0,0,0,0,0c-0.4-0.2-0.7-0.4-1.1-0.6c-0.2-0.1-0.4-0.3-0.6-0.4
						c-0.3-0.2-0.6-0.4-0.8-0.5c-0.3-0.2-0.5-0.4-0.8-0.6c-0.5-0.4-1.1-0.8-1.6-1.2h0c-0.5-0.4-1-0.8-1.5-1.3
						c-0.2-0.2-0.5-0.4-0.7-0.7c-0.2-0.2-0.4-0.4-0.7-0.6c-0.3-0.2-0.5-0.5-0.8-0.8c-0.2-0.2-0.5-0.5-0.7-0.7
						c-0.5-0.5-1-1.1-1.5-1.6c-0.4-0.4-0.8-0.9-1.1-1.3c-0.2-0.2-0.4-0.5-0.6-0.8c-0.2-0.3-0.4-0.5-0.6-0.8
						c-0.4-0.5-0.7-1.1-1.1-1.6c-0.2-0.3-0.4-0.6-0.5-0.8c-0.3-0.5-0.7-1.1-1-1.7c-0.3-0.6-0.6-1.2-0.9-1.8
						c-0.3-0.6-0.5-1.2-0.8-1.8c0,0,0-0.1,0-0.1c-0.2-0.6-0.5-1.1-0.7-1.7c-0.1-0.3-0.2-0.6-0.3-0.9c-0.3-0.9-0.6-1.9-0.8-2.9
						c-0.1-0.3-0.1-0.7-0.2-1c-0.1-0.3-0.1-0.7-0.2-1s-0.1-0.7-0.2-1c-0.2-1-0.3-2-0.4-3c0-0.3-0.1-0.7-0.1-1c0-0.3,0-0.7,0-1
						c0-0.2,0-0.3,0-0.5v-1c0-0.2,0-0.4,0-0.5c0-0.4,0-0.7,0-1c0-0.3,0-0.7,0.1-1c0.1-1,0.2-2,0.4-3c0-0.3,0.1-0.7,0.2-1
						c0.1-0.3,0.1-0.7,0.2-1c0.1-0.3,0.1-0.7,0.2-1c0.2-1,0.5-1.9,0.8-2.9c0.1-0.3,0.2-0.6,0.3-0.9c0.2-0.6,0.4-1.2,0.7-1.7
						c0,0,0-0.1,0-0.1c0.2-0.6,0.5-1.2,0.8-1.8c0.3-0.6,0.6-1.2,0.9-1.8c0.3-0.6,0.6-1.2,1-1.7c0.2-0.3,0.3-0.6,0.5-0.8
						c0.3-0.6,0.7-1.1,1.1-1.6c0.2-0.3,0.4-0.5,0.6-0.8c0.2-0.3,0.4-0.5,0.6-0.8c0.3-0.5,0.7-0.9,1.1-1.4c0.1-0.1,0.1-0.2,0.2-0.3
						c0.2-0.2,0.4-0.4,0.6-0.6c0.2-0.2,0.4-0.5,0.7-0.7c0.2-0.2,0.5-0.5,0.7-0.7c0.2-0.2,0.4-0.4,0.7-0.7c0.2-0.2,0.5-0.4,0.7-0.7
						c0.1-0.1,0.1-0.1,0.2-0.2c0.4-0.4,0.9-0.8,1.3-1.2c0,0,0.1,0,0.1-0.1c0.4-0.4,0.9-0.7,1.3-1.1c0.2-0.1,0.3-0.2,0.5-0.3
						c0.4-0.3,0.8-0.6,1.3-0.9c0.1,0,0.1-0.1,0.2-0.1c0.3-0.2,0.6-0.4,0.9-0.6c0.3-0.2,0.6-0.3,0.8-0.5c0.4-0.2,0.8-0.4,1.1-0.7
						c0.2-0.1,0.4-0.2,0.6-0.3c0,0,0,0,0,0c1-0.5,2-1,3-1.5c0.2-0.1,0.4-0.2,0.7-0.3c0.9-0.4,1.7-0.7,2.6-1c0.2-0.1,0.5-0.2,0.8-0.2
						c0.9-0.3,1.8-0.5,2.7-0.8c0.2-0.1,0.5-0.1,0.7-0.2c0,0,0,0,0,0c0.6-0.1,1.1-0.3,1.7-0.4c0.3,0,0.6-0.1,0.8-0.2
						c0.5-0.1,1-0.2,1.5-0.2c0,0,0.1,0,0.1,0c0.5-0.1,1-0.1,1.5-0.2c0.5,0,1-0.1,1.5-0.1c0.5,0,1-0.1,1.5-0.1c0.4,0,0.8,0,1.2,0h3.4
						c0-0.4,0.1-0.8,0.2-1.2c0-0.2,0-0.4,0.1-0.5c0-0.1,0-0.3,0.1-0.4c0.1-0.5,0.2-1.1,0.2-1.6c0,0,0-0.1,0-0.1
						c0.1-0.6,0.2-1.1,0.3-1.7c0.2-0.8,0.3-1.5,0.5-2.2c0.1-0.3,0.1-0.6,0.2-0.8c0.1-0.3,0.1-0.6,0.2-0.8c0.2-0.6,0.4-1.2,0.5-1.8
						c0.2-0.6,0.4-1.2,0.6-1.8c0.2-0.5,0.3-0.9,0.5-1.4c0-0.1,0.1-0.2,0.1-0.3c0.2-0.5,0.4-1,0.6-1.5c0.1-0.3,0.2-0.5,0.3-0.8
						c0,0,0-0.1,0.1-0.1c0.2-0.4,0.4-0.8,0.6-1.3c0.2-0.5,0.4-0.9,0.6-1.4c0.1-0.2,0.2-0.4,0.3-0.6c0.1-0.2,0.2-0.5,0.4-0.7
						c0.1-0.2,0.2-0.5,0.4-0.7v0c0.3-0.5,0.5-1,0.8-1.5c0.2-0.4,0.4-0.7,0.6-1.1c0.2-0.4,0.4-0.7,0.6-1c0.2-0.4,0.5-0.8,0.8-1.2
						c0.3-0.5,0.7-1,1-1.5c0.5-0.8,1.1-1.5,1.7-2.3c0,0,0.1-0.1,0.1-0.1c0.2-0.3,0.5-0.6,0.8-1c0.2-0.2,0.4-0.5,0.6-0.7
						c0.2-0.3,0.5-0.5,0.7-0.8c0,0,0.1-0.1,0.1-0.1c0.7-0.8,1.5-1.6,2.2-2.4c0.4-0.4,0.7-0.7,1.1-1.1c0.4-0.4,0.8-0.7,1.1-1.1
						c0.4-0.3,0.7-0.7,1.1-1c0,0,0.1-0.1,0.1-0.1c0,0,0,0,0,0c0.3-0.2,0.6-0.5,0.9-0.8c0,0,0,0,0.1-0.1c0,0,0.1,0,0.1-0.1
						c0.4-0.4,0.8-0.7,1.3-1l0.8-0.6l0.2-0.1c0.5-0.4,1-0.8,1.6-1.2c0.4-0.3,0.9-0.6,1.3-0.9c0.4-0.3,0.9-0.6,1.3-0.9
						c0.5-0.3,0.9-0.6,1.4-0.8c0.4-0.2,0.8-0.5,1.2-0.7c0.4-0.2,0.7-0.4,1.1-0.6c0.4-0.2,0.7-0.4,1.1-0.6c0.7-0.4,1.5-0.8,2.3-1.1
						c0.5-0.2,1-0.4,1.5-0.7c0.5-0.2,0.9-0.4,1.4-0.6c0,0,0.1,0,0.1,0c0.5-0.2,1-0.4,1.5-0.6c0.5-0.2,1-0.4,1.5-0.5
						c1-0.4,2.1-0.7,3.1-1c0.4-0.1,0.8-0.2,1.3-0.3c0.2-0.1,0.4-0.1,0.6-0.2c0.4-0.1,0.8-0.2,1.3-0.3c0.5-0.1,1-0.2,1.5-0.3
						c0.1,0,0.2,0,0.3-0.1c0.9-0.2,1.9-0.3,2.8-0.5c0.1,0,0.2,0,0.3,0c0.1,0,0.2,0,0.3,0c0.4-0.1,0.8-0.1,1.2-0.2c0.1,0,0.1,0,0.2,0
						c0.4,0,0.8-0.1,1.3-0.1c0.1,0,0.2,0,0.2,0h0.1c0.4,0,0.7-0.1,1.1-0.1c0,0,0.1,0,0.1,0c0.3,0,0.6,0,0.9,0c0.5,0,1,0,1.5,0
						c0.5,0,1,0,1.5,0s1,0,1.4,0c0.3,0,0.7,0,1,0c0,0,0,0,0,0c0.4,0,0.8,0,1.1,0.1l0.6,0c0.1,0,0.2,0,0.3,0c0.5,0,1,0.1,1.5,0.1
						c0.5,0.1,1,0.1,1.5,0.2c0.1,0,0.2,0,0.3,0c0.2,0,0.4,0.1,0.6,0.1c0.3,0,0.6,0.1,0.8,0.1c0.2,0,0.5,0.1,0.7,0.1
						c0.1,0,0.1,0,0.1,0c0,0,0.1,0,0.1,0c0.6,0.1,1.2,0.2,1.8,0.3c0.3,0,0.5,0.1,0.8,0.2c0.5,0.1,1,0.2,1.5,0.3
						c0.6,0.1,1.1,0.3,1.6,0.4c0.4,0.1,0.8,0.2,1.2,0.3c0.3,0.1,0.7,0.2,1,0.3c0.5,0.1,0.9,0.3,1.4,0.5c0.4,0.1,0.8,0.3,1.2,0.4
						c0,0,0,0,0,0c0.2,0.1,0.5,0.2,0.7,0.2c0.6,0.2,1.3,0.5,1.9,0.8c0.6,0.2,1.1,0.5,1.7,0.7c0.1,0,0.1,0.1,0.2,0.1c0,0,0,0,0,0
						c0.6,0.3,1.3,0.6,1.9,0.9c2.5,1.2,4.9,2.6,7.2,4.2c0.6,0.4,1.1,0.8,1.7,1.2c0.6,0.4,1.1,0.8,1.7,1.2c0.2,0.2,0.5,0.4,0.7,0.6
						c0.2,0.2,0.5,0.4,0.7,0.6c0,0,0.1,0.1,0.1,0.1c0.5,0.4,1.1,0.9,1.6,1.4c0.4,0.4,0.8,0.7,1.2,1.1c0,0,0.1,0.1,0.1,0.1
						c0.2,0.2,0.5,0.5,0.7,0.7c0.3,0.3,0.6,0.6,0.9,0.9c0.1,0.1,0.3,0.3,0.4,0.4c0.1,0.1,0.1,0.1,0.2,0.2c0.1,0.1,0.1,0.1,0.2,0.2
						c0.4,0.4,0.7,0.8,1,1.2c0.4,0.5,0.8,0.9,1.2,1.4c0.4,0.5,0.8,0.9,1.1,1.4c0.3,0.4,0.6,0.7,0.8,1.1c0.2,0.3,0.4,0.5,0.6,0.8
						c0.3,0.5,0.7,0.9,1,1.4c0,0,0,0,0,0.1c0.3,0.5,0.7,1,1,1.5c0,0,0,0,0,0c0.3,0.5,0.6,1,0.9,1.5c0.2,0.3,0.3,0.5,0.5,0.8
						c0.3,0.5,0.5,1,0.8,1.4c0,0.1,0.1,0.1,0.1,0.2c0.2,0.3,0.3,0.6,0.5,0.9c0,0.1,0.1,0.2,0.1,0.3c0.2,0.3,0.3,0.7,0.5,1
						c0.4,0.9,0.8,1.8,1.2,2.7c0.3,0.7,0.6,1.4,0.8,2.1c0.2,0.4,0.3,0.8,0.4,1.1c0.1,0.4,0.3,0.8,0.4,1.3c0.1,0.3,0.2,0.6,0.3,0.9
						c0.1,0.5,0.3,1,0.4,1.4c0.1,0.5,0.3,1,0.4,1.6c0.1,0.4,0.2,0.8,0.3,1.2c0.1,0.4,0.2,0.9,0.3,1.3c0.1,0.4,0.2,0.7,0.2,1.1
						c0,0.1,0.1,0.2,0.1,0.4c0,0.2,0.1,0.4,0.1,0.6c0,0.2,0.1,0.4,0.1,0.6c0,0.2,0,0.3,0.1,0.4c0,0,0,0.1,0,0.2
						c0.1,0.3,0.1,0.7,0.2,1.1c0,0.1,0,0.3,0,0.4c0.1,0.6,0.2,1.3,0.2,1.9h3.4c0.5,0,1,0,1.5,0h0.1c0.2,0,0.4,0,0.6,0
						c0.2,0,0.4,0,0.6,0c0.3,0,0.6,0,0.9,0.1c0.4,0,0.8,0.1,1.2,0.1c0.4,0,0.8,0.1,1.2,0.2c0.3,0,0.6,0.1,0.9,0.1
						c0.3,0,0.5,0.1,0.8,0.1c0.1,0,0.2,0,0.4,0.1c0.3,0,0.7,0.1,1,0.2c0.4,0.1,0.8,0.2,1.1,0.3c0.1,0,0.1,0,0.2,0
						c0.5,0.1,1,0.3,1.5,0.4c0.4,0.1,0.9,0.2,1.3,0.4c0.4,0.1,0.8,0.3,1.3,0.4c0.4,0.1,0.8,0.3,1.2,0.5c0.4,0.2,0.8,0.3,1.2,0.5
						c0.5,0.2,1,0.5,1.5,0.7c0.5,0.2,1,0.5,1.5,0.7c0.5,0.3,1,0.5,1.5,0.8c0.5,0.3,1,0.6,1.4,0.8c0.5,0.3,0.9,0.6,1.4,0.9
						s0.9,0.6,1.3,0.9c0.2,0.2,0.4,0.3,0.6,0.5c0.2,0.2,0.4,0.3,0.7,0.5c0.4,0.3,0.8,0.7,1.2,1.1c0.7,0.6,1.4,1.3,2.1,2
						c0.3,0.3,0.7,0.7,1,1c0.7,0.7,1.3,1.4,1.9,2.2c0.4,0.5,0.7,0.9,1,1.4c0.3,0.4,0.6,0.8,0.8,1.2c0.2,0.3,0.4,0.6,0.6,0.9
						c0.2,0.3,0.4,0.6,0.6,0.9c0.1,0.2,0.2,0.4,0.3,0.6c0.1,0.2,0.2,0.4,0.3,0.6c0.2,0.4,0.4,0.8,0.6,1.2c0.2,0.3,0.3,0.6,0.5,1
						c0,0,0,0.1,0.1,0.2c0,0.1,0.1,0.2,0.1,0.2c0,0,0,0.1,0.1,0.1c0.1,0.3,0.3,0.6,0.4,0.8c0,0,0,0.1,0,0.1c0,0.1,0.1,0.2,0.1,0.2
						c0.2,0.4,0.3,0.7,0.5,1.1c0.1,0.2,0.2,0.5,0.3,0.7c0.1,0.2,0.1,0.3,0.2,0.5c0.1,0.3,0.2,0.7,0.3,1c0,0,0,0.1,0,0.2c0,0,0,0,0,0
						c0.1,0.2,0.2,0.5,0.2,0.8c0,0,0,0.1,0,0.1c0,0.1,0.1,0.2,0.1,0.3h0c0.1,0.4,0.2,0.8,0.3,1.2c0,0.2,0.1,0.4,0.1,0.6c0,0,0,0,0,0
						c0.1,0.3,0.2,0.7,0.2,1c0,0,0,0,0,0c0.1,0.4,0.2,0.9,0.2,1.3c0,0.1,0,0.2,0,0.3c0.1,0.4,0.1,0.9,0.2,1.3
						c0.1,0.5,0.1,0.9,0.1,1.4c0,0,0,0.1,0,0.2c0,0.5,0.1,1,0.1,1.4v0C210.9,188.5,210.9,189.1,210.9,189.6z"/>
				</g>
			</g>
		</g>
	</g>
</g>
</svg>
