<?xml version="1.0" encoding="utf-8"?>
<!-- Generator: Adobe Illustrator 22.0.1, SVG Export Plug-In . SVG Version: 6.00 Build 0)  -->
<svg version="1.1" id="Calque_1" xmlns="http://www.w3.org/2000/svg" xmlns:xlink="http://www.w3.org/1999/xlink" x="0px" y="0px"
	 viewBox="0 0 256 256" style="enable-background:new 0 0 256 256;" xml:space="preserve">
<style type="text/css">
	.st0{fill:#FF7900;}
</style>
<g>
	<path class="st0" d="M205,82.5h-4.1C197,45.5,165.6,17,128,17S59,45.5,55.1,82.5H51c-27.9,0-50.6,21.8-50.6,48.5
		c0,26.7,22.7,48.5,50.6,48.5h154c27.9,0,50.6-21.7,50.6-48.5S232.9,82.5,205,82.5z"/>
	<path class="st0" d="M68.4,185.9l-11.2,26.1c-0.9,1.8-1.4,3.8-1.4,5.8c0,7,5.7,12.6,12.6,12.6S81,224.8,81,217.9c0-2-0.5-4-1.4-5.8
		L68.4,185.9z"/>
	<path class="st0" d="M128,185.9l-11.2,26.1c-0.9,1.8-1.4,3.8-1.4,5.8c0,7,5.7,12.6,12.6,12.6c7,0,12.6-5.7,12.6-12.6
		c0-2-0.5-4-1.4-5.8L128,185.9z"/>
	<path class="st0" d="M187.6,185.9l-11.2,26.1c-0.9,1.8-1.4,3.8-1.4,5.8c0,7,5.7,12.6,12.6,12.6c7,0,12.6-5.7,12.6-12.6
		c0-2-0.5-4-1.4-5.8L187.6,185.9z"/>
</g>
</svg>
