<?xml version="1.0" encoding="utf-8"?>
<!-- Generator: Adobe Illustrator 22.0.1, SVG Export Plug-In . SVG Version: 6.00 Build 0)  -->
<svg version="1.1" id="Calque_1" xmlns="http://www.w3.org/2000/svg" xmlns:xlink="http://www.w3.org/1999/xlink" x="0px" y="0px"
	 viewBox="0 0 256 256" style="enable-background:new 0 0 256 256;" xml:space="preserve">
<style type="text/css">
	.st0{fill:#FF7900;}
</style>
<g>
	<g>
		<path class="st0" d="M167.7,70.6c-16.4,0-30.7,9.1-38,22.5c7.8,2.9,15,7.3,21.2,13c10.8,9.8,18.2,22.7,21,36.8
			c7.8,0.4,15.1,2.6,21.5,6.1c10.7-7.9,17.7-20.6,17.7-35C211,90,191.6,70.6,167.7,70.6z"/>
		<g>
			<path class="st0" d="M167.7,58.6c-3,0-5.3-2.3-5.3-5.3V31.4c0-3,2.3-5.3,5.3-5.3s5.3,2.3,5.3,5.3v21.9
				C173.2,56.1,170.7,58.6,167.7,58.6z"/>
		</g>
		<g>
			<path class="st0" d="M210.8,76.4c-1.4,0-2.8-0.5-3.9-1.6c-2.1-2.1-2.1-5.5,0-7.6l15.5-15.5c2.1-2.1,5.5-2.1,7.6,0s2.1,5.5,0,7.6
				l-15.5,15.5C213.6,75.9,212.2,76.4,210.8,76.4z"/>
		</g>
		<g>
			<path class="st0" d="M250.5,119.3h-21.9c-3,0-5.3-2.3-5.3-5.3s2.3-5.3,5.3-5.3h21.9c3,0,5.3,2.3,5.3,5.3S253.2,119.3,250.5,119.3
				z"/>
		</g>
		<g>
			<path class="st0" d="M229.9,176.3c-0.9,1.2-2.3,1.6-3.7,1.6c-1.4,0-2.8-0.5-3.9-1.6l-12.5-12.5v0l-2.9-2.9
				c-0.7-0.7-1.1-1.5-1.4-2.4c-0.5-1.8,0-3.8,1.4-5.2c2.1-2.1,5.5-2.1,7.6,0l15.5,15.5C232,170.7,232,174.2,229.9,176.3z"/>
			<path class="st0" d="M124.8,76.4c-1.4,0-2.8-0.5-3.9-1.6l-15.5-15.5c-2.1-2.1-2.1-5.5,0-7.6c2.1-2.1,5.5-2.1,7.6,0l15.5,15.5
				c2.1,2.1,2.1,5.5,0,7.6C127.5,75.9,126.1,76.4,124.8,76.4z"/>
		</g>
	</g>
	<g>
		<g>
			<path class="st0" d="M211,189.8c0,22.1-18.7,40.1-41.8,40.1H42c-23,0-41.8-18-41.8-40.1c0-22.1,18.7-40.1,41.8-40.1h3.4
				c3.2-30.6,29.1-54.1,60.2-54.1c7.4,0,14.6,1.3,21.2,3.8c21,7.8,36.6,27,39.1,50.3h3.4c6,0,11.8,1.2,16.9,3.4
				C200.8,159.5,211,173.5,211,189.8z"/>
		</g>
	</g>
</g>
</svg>
