<?xml version="1.0" encoding="utf-8"?>
<!-- Generator: Adobe Illustrator 22.0.1, SVG Export Plug-In . SVG Version: 6.00 Build 0)  -->
<svg version="1.1" id="Calque_1" xmlns="http://www.w3.org/2000/svg" xmlns:xlink="http://www.w3.org/1999/xlink" x="0px" y="0px"
	 viewBox="0 0 256 256" style="enable-background:new 0 0 256 256;" xml:space="preserve">
<style type="text/css">
	.st0{fill:#FF7900;}
</style>
<g>
	<path class="st0" d="M127.8,190.9c-34.6,0-63.1-28.2-63.1-63.1s28.2-63.1,63.1-63.1s63.1,28.2,63.1,63.1S162.7,190.9,127.8,190.9z"
		/>
	<g>
		<path class="st0" d="M127.8,47.3c-4.4,0-7.7-3.4-7.7-7.7V7.7c0-4.4,3.4-7.7,7.7-7.7c4.4,0,7.7,3.4,7.7,7.7v31.9
			C135.9,43.6,132.2,47.3,127.8,47.3z"/>
		<path class="st0" d="M127.8,256c-4.4,0-7.7-3.4-7.7-7.7v-31.9c0-4.4,3.4-7.7,7.7-7.7c4.4,0,7.7,3.4,7.7,7.7v31.9
			C135.9,252.3,132.2,256,127.8,256z"/>
	</g>
	<g>
		<path class="st0" d="M190.6,73.1c-2,0-4-0.7-5.7-2.3c-3-3-3-8.1,0-11.1l22.5-22.5c3-3,8.1-3,11.1,0c3,3,3,8.1,0,11.1l-22.5,22.5
			C194.6,72.5,192.6,73.1,190.6,73.1z"/>
		<path class="st0" d="M42.9,220.8c-2,0-4-0.7-5.7-2.3c-3-3-3-8.1,0-11.1l22.5-22.5c3-3,8.1-3,11.1,0c3,3,3,8.1,0,11.1l-22.5,22.5
			C47,220.1,45,220.8,42.9,220.8z"/>
	</g>
	<g>
		<path class="st0" d="M248.3,135.5h-31.9c-4.4,0-7.7-3.4-7.7-7.7c0-4.4,3.4-7.7,7.7-7.7h31.9c4.4,0,7.7,3.4,7.7,7.7
			C256,132.2,252.3,135.5,248.3,135.5z"/>
		<path class="st0" d="M39.6,135.5H7.7c-4.4,0-7.7-3.4-7.7-7.7c0-4.4,3.4-7.7,7.7-7.7h31.9c4.4,0,7.7,3.4,7.7,7.7
			C47.3,132.2,44,135.5,39.6,135.5z"/>
	</g>
	<g>
		<path class="st0" d="M213.1,220.8c-2,0-4-0.7-5.7-2.3l-22.5-22.5c-3-3-3-8.1,0-11.1c3-3,8.1-3,11.1,0l22.5,22.5c3,3,3,8.1,0,11.1
			C217.1,220.1,215.1,220.8,213.1,220.8z"/>
		<path class="st0" d="M65.4,73.1c-2,0-4-0.7-5.7-2.3L37.2,48.3c-3-3-3-8.1,0-11.1s8.1-3,11.1,0l22.5,22.5c3,3,3,8.1,0,11.1
			C69.5,72.5,67.4,73.1,65.4,73.1z"/>
	</g>
</g>
</svg>
