<?xml version="1.0" encoding="utf-8"?>
<!-- Generator: Adobe Illustrator 22.0.1, SVG Export Plug-In . SVG Version: 6.00 Build 0)  -->
<svg version="1.1" id="Calque_1" xmlns="http://www.w3.org/2000/svg" xmlns:xlink="http://www.w3.org/1999/xlink" x="0px" y="0px"
	 viewBox="0 0 271.2 420" style="enable-background:new 0 0 271.2 420;" xml:space="preserve">
<style type="text/css">
	.st0{fill:#FF7900;}
</style>
<g>
	<path class="st0" d="M156.4,420h-41.2c-14.6,0-27.2-13.7-28.6-30.4l-14-189.3c-0.8-11.8-10.5-25.8-20.9-30.6
		c-0.8-0.6-22.6-10.8-41.2-29.5C3.6,133.6,0,124.8,0,115.6c0-9.1,3.5-18,10-24.5s15.1-10.3,24.3-10.3s18,3.5,24.5,10
		c42.7,41.7,111.3,41.2,153.3-1.4c6.5-6.5,15.1-10.3,24.3-10.3h0.3c9.1,0,17.7,3.5,24.3,10l0,0c13.7,13.4,13.7,35.5,0.6,49.2
		c-18.6,18.6-40.6,29.8-41.7,30.1c-10.5,5.1-20,19.4-20.9,31.2l-14.3,190.3C183.5,406.3,171,420,156.4,420z"/>
	<path class="st0" d="M135.8,103c-28.3,0-51.6-23.1-51.6-51.6S107.4,0,135.8,0s51.6,23.1,51.6,51.6S164.1,103,135.8,103z"/>
</g>
</svg>
