<?xml version="1.0" encoding="utf-8"?>
<!-- Generator: Adobe Illustrator 22.0.1, SVG Export Plug-In . SVG Version: 6.00 Build 0)  -->
<svg version="1.1" id="Calque_1" xmlns="http://www.w3.org/2000/svg" xmlns:xlink="http://www.w3.org/1999/xlink" x="0px" y="0px"
	 viewBox="0 0 420 420" style="enable-background:new 0 0 420 420;" xml:space="preserve">
<style type="text/css">
	.st0{fill:#FFFFFF;}
	.st1{fill:#FF7900;}
</style>
<circle class="st0" cx="210" cy="210" r="210"/>
<path class="st1" d="M312.7,176.4c-8.1-48.3-50.1-85.1-100.8-85.1c-38.2,0-71.5,21-89,52c-45.4,6.3-80.4,45.2-80.4,92.3
	c0,51.3,41.5,93,92.7,93.2v0h165.6c42.3,0,76.7-34.3,76.7-76.7C377.5,213.8,349.4,182.1,312.7,176.4z"/>
<path class="st0" d="M268.8,282.9c-3.3,0-6.4-1.9-7.8-5l-51-111.3l-51,111.3c-2,4.3-7.1,6.2-11.4,4.3c-4.3-2-6.2-7.1-4.3-11.4
	l58.8-128.5c1.4-3.1,4.5-5,7.8-5s6.4,2,7.8,5l58.8,128.5c2,4.3,0.1,9.5-4.3,11.4C271.2,282.6,270,282.9,268.8,282.9z"/>
</svg>
