<?xml version="1.0" encoding="utf-8"?>
<!-- Generator: Adobe Illustrator 22.0.1, SVG Export Plug-In . SVG Version: 6.00 Build 0)  -->
<svg version="1.1" id="Calque_1" xmlns="http://www.w3.org/2000/svg" xmlns:xlink="http://www.w3.org/1999/xlink" x="0px" y="0px"
	 viewBox="0 0 113.6 92.4" style="enable-background:new 0 0 113.6 92.4;" xml:space="preserve">
<style type="text/css">
	.st0{fill:#FFFFFF;}
</style>
<polygon class="st0" points="91.8,92.4 84.8,84.8 77.9,77.1 88,74.9 98.1,72.7 95,82.6 "/>
<path class="st0" d="M97.9,30.7c-2-0.9-4.1-1.5-6.3-1.8c-0.9-5.4-3.1-10.4-6.2-14.7C79.1,5.6,68.9,0,57.4,0
	c-10.4,0-19.7,4.6-26,11.8c-1.6,1.8-3,3.8-4.2,5.9c-1.2,0.2-2.3,0.4-3.5,0.7C10.1,21.8,0,34.2,0,48.9c0,14.7,10.1,27.1,23.7,30.6
	c2.5,0.6,5,1,7.7,1h56.1c0.5,0,0.9,0,1.3,0c0,0,0,0,0,0c13.7-0.7,24.6-12,24.6-26C113.6,43.9,107.1,34.7,97.9,30.7z M35.8,55.7
	c-3.6,0-6.6-3-6.6-6.6c0-3.6,3-6.6,6.6-6.6s6.6,3,6.6,6.6C42.4,52.8,39.5,55.7,35.8,55.7z M56.8,55.5c-3.6,0-6.6-3-6.6-6.6
	c0-3.6,3-6.6,6.6-6.6s6.6,3,6.6,6.6C63.4,52.6,60.4,55.5,56.8,55.5z M79.1,57.9c-4.9,0-8.9-4-8.9-8.9s4-8.9,8.9-8.9
	c4.9,0,8.9,4,8.9,8.9C88.1,53.9,84.1,57.9,79.1,57.9z"/>
</svg>
