<?xml version="1.0" encoding="utf-8"?>
<!-- Generator: Adobe Illustrator 22.0.1, SVG Export Plug-In . SVG Version: 6.00 Build 0)  -->
<svg version="1.1" id="Calque_1" xmlns="http://www.w3.org/2000/svg" xmlns:xlink="http://www.w3.org/1999/xlink" x="0px" y="0px"
	 viewBox="0 0 322 166" style="enable-background:new 0 0 322 166;" xml:space="preserve">
<style type="text/css">
	.st0{fill:#FF7900;}
	.st1{fill:#FFFFFF;}
	.st2{font-family:'Roboto-Regular';}
	.st3{font-size:11px;}
	.st4{opacity:0.71;fill:#FF7900;}
	.st5{opacity:0.21;fill:#FF7900;}
	.st6{opacity:0.29;fill:#FF7900;}
	.st7{fill:#4D4D4D;}
	.st8{fill:#808080;}
	.st9{fill:none;stroke:#FF7900;stroke-width:5;stroke-linecap:round;stroke-miterlimit:10;}
	.st10{fill:none;stroke:#FF9843;stroke-width:5;stroke-linecap:round;stroke-miterlimit:10;}
</style>
<rect x="265" y="50" class="st0" width="54" height="14"/>
<polygon class="st0" points="257.3,57 261.1,54.8 265,52.5 265,57 265,61.5 261.1,59.2 "/>
<text transform="matrix(1 0 0 1 277.2246 60.2285)" class="st1 st2 st3">20 pts</text>
<text transform="matrix(1 0 0 1 277.2246 108.2285)" class="st0 st2 st3">10 pts</text>
<circle class="st4" cx="252" cy="57" r="1"/>
<circle class="st4" cx="246" cy="57" r="1"/>
<circle class="st4" cx="240" cy="57" r="1"/>
<circle class="st4" cx="234" cy="57" r="1"/>
<circle class="st4" cx="228" cy="57" r="1"/>
<circle class="st4" cx="222" cy="57" r="1"/>
<circle class="st4" cx="216" cy="57" r="1"/>
<circle class="st4" cx="210" cy="57" r="1"/>
<circle class="st4" cx="204" cy="57" r="1"/>
<circle class="st4" cx="198" cy="57" r="1"/>
<circle class="st4" cx="192" cy="57" r="1"/>
<circle class="st4" cx="186" cy="57" r="1"/>
<circle class="st4" cx="180" cy="57" r="1"/>
<circle class="st4" cx="174" cy="57" r="1"/>
<circle class="st4" cx="168" cy="57" r="1"/>
<circle class="st4" cx="162" cy="57" r="1"/>
<circle class="st4" cx="156" cy="57" r="1"/>
<circle class="st4" cx="150" cy="57" r="1"/>
<circle class="st4" cx="144" cy="57" r="1"/>
<circle class="st4" cx="138" cy="57" r="1"/>
<circle class="st4" cx="132" cy="57" r="1"/>
<circle class="st4" cx="126" cy="57" r="1"/>
<circle class="st4" cx="120" cy="57" r="1"/>
<circle class="st4" cx="114" cy="57" r="1"/>
<circle class="st4" cx="108" cy="57" r="1"/>
<circle class="st4" cx="102" cy="57" r="1"/>
<circle class="st4" cx="96" cy="57" r="1"/>
<circle class="st4" cx="90" cy="57" r="1"/>
<circle class="st4" cx="84" cy="57" r="1"/>
<circle class="st4" cx="78" cy="57" r="1"/>
<circle class="st4" cx="72" cy="57" r="1"/>
<circle class="st4" cx="66" cy="57" r="1"/>
<circle class="st4" cx="60" cy="57" r="1"/>
<circle class="st4" cx="54" cy="57" r="1"/>
<circle class="st4" cx="48" cy="57" r="1"/>
<circle class="st4" cx="42" cy="57" r="1"/>
<circle class="st4" cx="36" cy="57" r="1"/>
<circle class="st4" cx="30" cy="57" r="1"/>
<circle class="st4" cx="24" cy="57" r="1"/>
<circle class="st4" cx="18" cy="57" r="1"/>
<circle class="st4" cx="12" cy="57" r="1"/>
<circle class="st4" cx="6" cy="57" r="1"/>
<circle class="st5" cx="252" cy="106" r="1"/>
<circle class="st5" cx="258" cy="106" r="1"/>
<circle class="st5" cx="264" cy="106" r="1"/>
<circle class="st5" cx="270" cy="106" r="1"/>
<circle class="st5" cx="246" cy="106" r="1"/>
<circle class="st5" cx="240" cy="106" r="1"/>
<circle class="st5" cx="234" cy="106" r="1"/>
<circle class="st5" cx="228" cy="106" r="1"/>
<circle class="st5" cx="222" cy="106" r="1"/>
<circle class="st5" cx="216" cy="106" r="1"/>
<circle class="st5" cx="210" cy="106" r="1"/>
<circle class="st5" cx="204" cy="106" r="1"/>
<circle class="st5" cx="198" cy="106" r="1"/>
<circle class="st5" cx="192" cy="106" r="1"/>
<circle class="st5" cx="186" cy="106" r="1"/>
<circle class="st5" cx="180" cy="106" r="1"/>
<circle class="st5" cx="174" cy="106" r="1"/>
<circle class="st5" cx="168" cy="106" r="1"/>
<circle class="st5" cx="162" cy="106" r="1"/>
<circle class="st5" cx="156" cy="106" r="1"/>
<circle class="st5" cx="150" cy="106" r="1"/>
<circle class="st5" cx="144" cy="106" r="1"/>
<circle class="st5" cx="138" cy="106" r="1"/>
<circle class="st5" cx="132" cy="106" r="1"/>
<circle class="st5" cx="126" cy="106" r="1"/>
<circle class="st5" cx="120" cy="106" r="1"/>
<circle class="st5" cx="114" cy="106" r="1"/>
<circle class="st5" cx="108" cy="106" r="1"/>
<circle class="st5" cx="102" cy="106" r="1"/>
<circle class="st5" cx="96" cy="106" r="1"/>
<circle class="st5" cx="90" cy="106" r="1"/>
<circle class="st5" cx="84" cy="106" r="1"/>
<circle class="st5" cx="78" cy="106" r="1"/>
<circle class="st5" cx="72" cy="106" r="1"/>
<circle class="st5" cx="66" cy="106" r="1"/>
<circle class="st5" cx="60" cy="106" r="1"/>
<circle class="st5" cx="54" cy="106" r="1"/>
<circle class="st5" cx="48" cy="106" r="1"/>
<circle class="st5" cx="42" cy="106" r="1"/>
<circle class="st5" cx="36" cy="106" r="1"/>
<circle class="st5" cx="30" cy="106" r="1"/>
<circle class="st5" cx="24" cy="106" r="1"/>
<circle class="st5" cx="18" cy="106" r="1"/>
<circle class="st5" cx="12" cy="106" r="1"/>
<circle class="st5" cx="6" cy="106" r="1"/>
<rect x="0" y="144" class="st6" width="322" height="22"/>
<circle class="st0" cx="162.1" cy="154.6" r="9.5"/>
<g>
	<path class="st1" d="M161.6,159H156v-0.8l3-3.3c0.4-0.5,0.7-0.9,0.9-1.2s0.2-0.6,0.2-1c0-0.4-0.1-0.8-0.4-1.1s-0.6-0.4-1.1-0.4
		c-0.5,0-1,0.2-1.3,0.5s-0.4,0.7-0.4,1.3h-1.1c0-0.8,0.3-1.4,0.8-1.9s1.2-0.7,2-0.7c0.8,0,1.4,0.2,1.9,0.6s0.7,1,0.7,1.7
		c0,0.8-0.5,1.8-1.6,3l-2.3,2.5h4.3V159z"/>
	<path class="st1" d="M168.3,159h-5.6v-0.8l3-3.3c0.4-0.5,0.7-0.9,0.9-1.2s0.2-0.6,0.2-1c0-0.4-0.1-0.8-0.4-1.1s-0.6-0.4-1.1-0.4
		c-0.5,0-1,0.2-1.3,0.5s-0.4,0.7-0.4,1.3h-1.1c0-0.8,0.3-1.4,0.8-1.9s1.2-0.7,2-0.7c0.8,0,1.4,0.2,1.9,0.6s0.7,1,0.7,1.7
		c0,0.8-0.5,1.8-1.6,3l-2.3,2.5h4.3V159z"/>
</g>
<text transform="matrix(1 0 0 1 105.8232 158.1123)" class="st7 st2 st3">21</text>
<text transform="matrix(1 0 0 1 203.8232 158.1123)" class="st8 st2 st3">23</text>
<text transform="matrix(1 0 0 1 247.8232 158.1123)" class="st8 st2 st3">24</text>
<text transform="matrix(1 0 0 1 289.8232 158.1123)" class="st8 st2 st3">25</text>
<text transform="matrix(1 0 0 1 65.8232 158.1123)" class="st7 st2 st3">20</text>
<text transform="matrix(1 0 0 1 20.8232 158.1123)" class="st7 st2 st3">19</text>
<line class="st9" x1="30" y1="137" x2="30" y2="86"/>
<line class="st10" x1="162.5" y1="137.5" x2="162.5" y2="105"/>
<line class="st9" x1="72" y1="137" x2="72" y2="14"/>
<line class="st9" x1="111.5" y1="137.5" x2="111.5" y2="56"/>
</svg>
