<?xml version="1.0" encoding="utf-8"?>
<!-- Generator: Adobe Illustrator 22.0.1, SVG Export Plug-In . SVG Version: 6.00 Build 0)  -->
<svg version="1.1" id="Calque_1" xmlns="http://www.w3.org/2000/svg" xmlns:xlink="http://www.w3.org/1999/xlink" x="0px" y="0px"
	 viewBox="0 0 116.1 123.3" style="enable-background:new 0 0 116.1 123.3;" xml:space="preserve">
<style type="text/css">
	.st0{fill:#FF7900;}
</style>
<path class="st0" d="M68,94.5l20.3-35.7c0.3-0.3,0.5-0.7,0.7-1.1c4.1-6.1,6.2-13.2,6.2-20.6C95.3,16.7,78.6,0,58.1,0
	S20.9,16.7,20.9,37.2c0,7.4,2.2,14.5,6.2,20.6c0.2,0.3,0.5,0.7,0.7,1l20.3,35.7C23.7,95.5,0,100.2,0,108.8
	c0,9.5,29.2,14.5,58.1,14.5c28.8,0,58.1-5,58.1-14.5C116.1,100.2,92.4,95.5,68,94.5z M58.1,20.5c9.7,0,17.6,7.9,17.6,17.6
	c0,9.7-7.9,17.5-17.6,17.5s-17.6-7.9-17.6-17.5C40.5,28.4,48.4,20.5,58.1,20.5z M97.6,116.3C87.1,118.7,73,120,58.1,120
	s-29-1.3-39.6-3.7c-11.3-2.6-15.3-5.7-15.3-7.5c0-4,16.2-10.1,46.7-11.1l6.8,11.9c0.3,0.5,0.8,0.8,1.4,0.8c0.6,0,1.1-0.3,1.4-0.8
	l6.8-11.9c30.5,1,46.7,7.1,46.7,11.1C112.9,110.6,108.9,113.7,97.6,116.3z"/>
</svg>
