<?xml version="1.0" encoding="utf-8"?>
<!-- Generator: Adobe Illustrator 22.0.1, SVG Export Plug-In . SVG Version: 6.00 Build 0)  -->
<svg version="1.1" id="Calque_1" xmlns="http://www.w3.org/2000/svg" xmlns:xlink="http://www.w3.org/1999/xlink" x="0px" y="0px"
	 viewBox="0 0 95 71.1" style="enable-background:new 0 0 95 71.1;" xml:space="preserve">
<style type="text/css">
	.st0{fill:#FF7900;}
</style>
<g>
	<path class="st0" d="M77.2,0H17.8c-3,0-5.8,0.8-8.3,2.1L44.3,37c1.7,1.7,4.7,1.7,6.4,0L85.6,2.1C83.1,0.8,80.2,0,77.2,0z"/>
	<path class="st0" d="M37.9,43.4l-6.8-6.8L3.6,64c3.2,4.3,8.4,7,14.1,7h59.5c5.8,0,10.9-2.8,14.1-7L63.9,36.6l-6.8,6.8
		c-2.6,2.6-6,4-9.6,4S40.5,45.9,37.9,43.4z"/>
	<path class="st0" d="M0,53.3c0,0.5,0,1,0.1,1.5l24.6-24.6L2.8,8.2C1,11,0,14.3,0,17.8V53.3z"/>
	<path class="st0" d="M95,17.8c0-3.5-1-6.8-2.8-9.5L70.3,30.2l24.6,24.6c0-0.5,0.1-1,0.1-1.5V17.8z"/>
</g>
</svg>
