<?xml version="1.0" encoding="utf-8"?>
<!-- Generator: Adobe Illustrator 22.0.1, SVG Export Plug-In . SVG Version: 6.00 Build 0)  -->
<svg version="1.1" id="Calque_1" xmlns="http://www.w3.org/2000/svg" xmlns:xlink="http://www.w3.org/1999/xlink" x="0px" y="0px"
	 viewBox="0 0 28.2 31.7" style="enable-background:new 0 0 28.2 31.7;" xml:space="preserve">
<style type="text/css">
	.st0{fill:#999999;}
</style>
<path class="st0" d="M27.5,1.2C27.3,0.5,26.7,0,26,0c0,0,0,0,0,0l-5.7,0.7C19.5,0.8,19,1.5,19,2.2c0.1,0.7,0.8,1.2,1.5,1.2l2.3-0.3
	l-5.7,7.4c-4.8-3-11.3-1.8-14.8,2.8c-1.9,2.4-2.7,5.4-2.3,8.4c0.4,3,1.9,5.7,4.3,7.5c2.1,1.6,4.6,2.4,7,2.4c3.4,0,6.7-1.5,8.9-4.4
	c3.5-4.5,3.1-11.1-1-15.1l5.8-7.4l0.3,2.3c0,0.5,0.3,0.8,0.5,1c0.3,0.3,0.7,0.3,1,0.3c0.7-0.1,1.2-0.8,1.2-1.5L27.5,1.2z M10.2,11.8
	c2.3-0.3,4.5,0.4,6.3,1.8c3.7,3,4.4,8.4,1.4,12.1c-2.9,3.7-8.2,4.3-12.1,1.4c-1.8-1.4-3-3.5-3.2-5.7c-0.3-2.3,0.4-4.5,1.8-6.3
	C5.9,13.2,8,12,10.2,11.8z"/>
</svg>
