<?xml version="1.0" encoding="utf-8"?>
<!-- Generator: Adobe Illustrator 22.0.1, SVG Export Plug-In . SVG Version: 6.00 Build 0)  -->
<svg version="1.1" id="Calque_1" xmlns="http://www.w3.org/2000/svg" xmlns:xlink="http://www.w3.org/1999/xlink" x="0px" y="0px"
	 viewBox="0 0 224 224" style="enable-background:new 0 0 224 224;" xml:space="preserve">
<style type="text/css">
	.st0{fill:#FFFFFF;}
	.st1{fill:#FF7900;}
</style>
<circle class="st0" cx="112" cy="112" r="112"/>
<g>
	<path class="st1" d="M67.7,72.8c0.6-1.3,1.6-2.1,3.1-2.3c15.5-2,27.9,1.2,37.3,9.5c4.1,3.7,7.3,8.1,9.5,13.2
		c2.2,5.1,3.5,10.6,3.8,16.3c0.2,4.4-0.1,8.8-0.9,13.2c-0.8,4.4-2.3,8.5-4.3,12.6c-2,4-4.5,7.6-7.5,10.8c-2.9,3.2-6.5,5.9-10.7,7.9
		c-4.2,2.1-8.8,3.3-13.7,3.7c-6,0.5-11.7-0.1-17.1-1.7s-10-3.8-13.8-6.8c-3.9-3-7.2-6.5-10-10.7c-2.8-4.1-4.8-8.5-6.1-13.1
		s-1.8-9.3-1.6-14.2c0.2-4.9,1.2-9.5,2.9-13.9c1.8-4.4,4.5-8.5,8.1-12.3c3.6-3.8,8.1-6.9,13.4-9.3C62.7,74.5,65.2,73.5,67.7,72.8z
		 M83.2,79.6c-6.3-0.8-13,0.4-19.8,3.4c-4.1,1.8-7.6,4.3-10.5,7.4c-2.9,3.1-5.1,6.4-6.5,10c-1.4,3.6-2.2,7.3-2.4,11.3
		c-0.2,4,0.2,7.9,1.2,11.6c1,3.8,2.6,7.4,4.9,10.7c2.3,3.4,5,6.3,8.1,8.7c3.1,2.4,6.9,4.3,11.4,5.6c4.4,1.2,9.2,1.6,14.2,1.3
		c6.3-0.5,11.8-2.7,16.5-6.7c4.7-4,8.2-8.9,10.4-14.7c2.2-5.7,3.1-11.9,2.8-18.4c-0.5-10.1-4.1-18.1-10.7-24
		c-4.4-3.9-9.8-6.4-16.3-7.5C85.4,79.4,84.4,79.7,83.2,79.6z"/>
	<path class="st1" d="M147,65.5c0.1,3.6,0,9.6-0.3,18c-0.3,7.6-0.3,13.5-0.1,17.4c0.3,6,0.7,14,1.1,24c1-0.8,3.3-2.7,7.1-5.6
		c3.7-2.9,6.7-5.4,9-7.3l6.8-6c0.8-0.8,1.8-1.1,2.9-1c1.1,0.1,2,0.5,2.8,1.3c0.8,0.8,1.1,1.8,1,2.9c-0.1,1.1-0.5,2-1.3,2.8
		c-3.6,3.4-9.1,8-16.4,13.8c0.6,2.1,1.4,4.1,2.4,6.1c1,2,2.3,4.2,3.9,6.5l3.9,5.5c1,1.4,2.6,3.5,4.9,6.4l4.6,5.7
		c0.7,0.8,1,1.8,0.8,2.9c-0.2,1.1-0.7,2-1.5,2.7c-0.9,0.7-1.9,1-3,0.8c-1.1-0.2-2-0.7-2.7-1.6l-4-5l-4.7-6l-4-5.7
		c-1.6-2.2-3-4.4-4.2-6.6c-1.2-2.2-2.2-4.3-3-6.5l-3,2.4c-0.5,0.5-1.1,0.8-1.8,0.9l0.8,17.1c0.1,1.1-0.3,2.1-1,2.9
		c-0.8,0.8-1.7,1.2-2.8,1.3c-1.1,0.1-2.1-0.3-2.9-1c-0.8-0.8-1.2-1.7-1.3-2.8l-1.1-24.2l-1.3-26.3c-0.2-4.3-0.2-10.3,0.1-18.1
		c0.3-8.3,0.4-14.1,0.3-17.5c0-1.1,0.4-2.1,1.1-2.9c0.8-0.8,1.7-1.2,2.8-1.2c1.1,0,2.1,0.4,2.9,1.1C146.6,63.5,147,64.4,147,65.5z"
		/>
</g>
</svg>
