<?xml version="1.0" encoding="utf-8"?>
<!-- Generator: Adobe Illustrator 22.0.1, SVG Export Plug-In . SVG Version: 6.00 Build 0)  -->
<svg version="1.1" id="Calque_1" xmlns="http://www.w3.org/2000/svg" xmlns:xlink="http://www.w3.org/1999/xlink" x="0px" y="0px"
	 viewBox="0 0 65.7 62.8" style="enable-background:new 0 0 65.7 62.8;" xml:space="preserve">
<style type="text/css">
	.st0{fill:#FFC500;}
</style>
<path class="st0" d="M51.3,62.8c-0.5,0-1-0.1-1.4-0.3l-17.1-9l-17.1,9c-1,0.5-2.2,0.4-3.2-0.2c-0.9-0.7-1.4-1.8-1.2-2.9l3.3-19
	L0.9,26.8c-0.8-0.8-1.1-2-0.8-3.1c0.4-1.1,1.3-1.9,2.4-2L21.6,19l8.5-17.3c0.5-1,1.5-1.7,2.7-1.7C34,0,35,0.6,35.6,1.7L44.1,19
	l19.1,2.8c1.1,0.2,2.1,1,2.4,2c0.4,1.1,0.1,2.3-0.8,3.1L51,40.3l3.3,19c0.2,1.1-0.3,2.3-1.2,2.9C52.6,62.6,51.9,62.8,51.3,62.8z
	 M32.9,47.1c0.5,0,1,0.1,1.4,0.3l13.1,6.9l-2.5-14.6c-0.2-1,0.2-2,0.9-2.7l10.6-10.3l-14.6-2.1c-1-0.1-1.8-0.8-2.3-1.6L32.9,9.8
	L26.3,23c-0.4,0.9-1.3,1.5-2.3,1.6L9.4,26.8L20,37.1c0.7,0.7,1,1.7,0.9,2.7l-2.5,14.6l13.1-6.9C31.9,47.2,32.4,47.1,32.9,47.1z"/>
</svg>
