<?xml version="1.0" encoding="utf-8"?>
<!-- Generator: Adobe Illustrator 22.0.1, SVG Export Plug-In . SVG Version: 6.00 Build 0)  -->
<svg version="1.1" id="Calque_1" xmlns="http://www.w3.org/2000/svg" xmlns:xlink="http://www.w3.org/1999/xlink" x="0px" y="0px"
	 viewBox="0 0 22.8 35.8" style="enable-background:new 0 0 22.8 35.8;" xml:space="preserve">
<style type="text/css">
	.st0{fill:#999999;}
</style>
<path class="st0" d="M22.8,11.4C22.8,5.1,17.6,0,11.4,0C5.1,0,0,5.1,0,11.4c0,5.7,4.4,10.6,10,11.2V29H7.4C6.6,29,6,29.6,6,30.4
	s0.6,1.4,1.4,1.4H10v2.6c0,0.8,0.6,1.4,1.4,1.4s1.4-0.6,1.4-1.4v-2.6h2.6c0.8,0,1.4-0.6,1.4-1.4S16.2,29,15.4,29h-2.6v-6.4
	C18.4,21.9,22.8,17.1,22.8,11.4z M11.4,2.8c4.8,0,8.6,3.9,8.6,8.6S16.1,20,11.4,20s-8.6-3.9-8.6-8.6S6.6,2.8,11.4,2.8z"/>
</svg>
