<?xml version="1.0" encoding="utf-8"?>
<!-- Generator: Adobe Illustrator 22.0.1, SVG Export Plug-In . SVG Version: 6.00 Build 0)  -->
<svg version="1.1" id="Calque_1" xmlns="http://www.w3.org/2000/svg" xmlns:xlink="http://www.w3.org/1999/xlink" x="0px" y="0px"
	 viewBox="0 0 176 144" style="enable-background:new 0 0 176 144;" xml:space="preserve">
<style type="text/css">
	.st0{fill:#FF7900;}
	.st1{fill:none;}
</style>
<path class="st0" d="M149.4,93.4h11.1c4.2,0,8.1-1.7,11-4.7c2.9-3,4.5-7,4.5-11.2c0.1-8.7-6.9-15.8-15.5-15.9h-3V51.1H51.3v14.6
	c0,4.1,0.5,8.1,1.4,12h0l0,0.1c0.2,0.9,0.4,1.8,0.7,2.6h0l1.6,5.7l5.6-1.4l-1.5-3.7c-1.8-4.9-2.6-10.1-2.6-15.3v-9.3h95.5v9.3
	c0,6.5-1.3,12.9-4,18.8c-4.9,11-13.9,19.5-25,24c1.7,1.7,2.8,3.8,3.3,6.1h29.2l-1.1,1.1c-1,1-2.3,1.6-3.7,1.6h-24.2
	c-0.1,1.9-0.6,3.7-1.5,5.2h25.6c2.8,0,5.5-1.1,7.5-3.1l4.9-4.9h6.2v-5.3h-36.1C139.8,105.4,145.3,99.9,149.4,93.4z M153,86.7
	c2.8-6.3,4.3-13,4.4-19.9h3.1c5.8,0.1,10.3,4.9,10.2,10.6c0,2.8-1.1,5.5-3,7.5c-1.9,2-4.5,3.1-7.2,3.1h-8.1
	C152.6,87.6,152.8,87.2,153,86.7z"/>
<path class="st0" d="M140.4,129.5c-0.8-0.8-1.7-1.6-2.5-2.4l-2.9-2.5c-0.7-0.6-1.5-1.2-2.2-1.8h0.1l-4.3-3.8c0.1-0.5,0.1-1,0.2-1.5
	h-0.1l0.3-2.1v-0.5h0c0.1-3.9-2.5-6.7-2.5-6.7c-4.7-4.1-9.9-7.7-15.4-10.6l0.3-2c0.6-3.7-1.5-7.3-5-8.7c-4-1.6-8.1-2.8-12.2-3.8
	c-3.6-0.8-6.7-1.3-9.2-1.7c-0.5-0.1-1-0.1-1.5-0.2c0,0,0,0,0,0c-2.5-0.4-4.5-0.5-5.8-0.6v0c-0.8,0-1.6,0-2.4-0.1
	c-1.2-0.1-2.4-0.1-3.6-0.1c-11.9,0-23.7,2.2-34.7,6.6c-3.5,1.3-5.6,5-5,8.7l0.3,1.9c-5.5,2.9-10.7,6.5-15.4,10.6
	c-2,1.8-2.9,4.5-2.5,7.1l0.6,3.7c-4.4,3.2-8.6,6.7-12.4,10.6c-2.5,2.5-3.2,6.2-1.9,9.5c1.2,3,4,5,7.2,5h127.1c3.2,0,6.2-2,7.3-5.1
	C143.6,135.7,142.9,132,140.4,129.5z M123,112.2c0.6,0.6,0.9,1.5,0.8,2.4l-3.8,24.2h-15.3l5.6-35.6
	C114.8,105.7,119.1,108.7,123,112.2z M7.9,138.7c-1.1-0.1-2-0.7-2.4-1.8c-0.5-1.2-0.3-2.7,0.7-3.7c3.1-3,6.4-5.8,9.8-8.4l2.2,13.8
	H7.9z M23.5,138.7l-3.8-24.2c-0.1-0.9,0.2-1.8,0.8-2.4c3.9-3.5,8.2-6.5,12.7-9.1l5.6,35.7H23.5z M98.9,138.7H44.2l-6.9-44
	c-0.2-1.3,0.5-2.5,1.7-2.9c21-8.2,44.4-8.2,65.5,0c1.2,0.4,1.9,1.7,1.7,2.9l-6.9,44L98.9,138.7z M137.3,137c-0.4,1-1.3,1.7-2.4,1.8
	h-9.6l2.1-13.3c0,0,0,0,0.1,0.1c3.2,2.4,6.2,5.1,9.1,7.9C137.5,134.4,137.8,135.8,137.3,137z"/>
<title>Breakfast</title>
<g>
	<path class="st0" d="M101.5,16.7c-1.4-1.5-1.9-2.1-1.9-3.5c0-1.4,0.5-2,1.9-3.5c2.4-2,3.9-5.2,3.9-8.5c0-0.3-0.1-0.6-0.3-0.8
		c-0.2-0.2-0.5-0.3-0.8-0.3h-3.9c-0.6,0-1.1,0.5-1.1,1.1c0,1.4-0.5,2-1.9,3.5c-2.4,2-3.9,5.2-4,8.6c0.1,3.4,1.6,6.6,4.1,8.5
		c1.4,1.5,1.9,2,1.9,3.5c0,1.4-0.5,2-1.9,3.5c-2.4,2-3.9,5.2-3.9,8.5c0,0.3,0.1,0.6,0.3,0.8c0.2,0.2,0.5,0.3,0.8,0.3h3.9
		c0.6,0,1.1-0.5,1.1-1.1c0-1.4,0.5-2,1.9-3.5c2.4-2,3.8-5.1,3.9-8.5C105.5,21.9,104,18.7,101.5,16.7z"/>
	<path class="st0" d="M117.8,16.7c-1.4-1.5-1.9-2.1-1.9-3.5c0-1.4,0.5-2,1.9-3.5c2.4-2,3.9-5.2,4-8.6c0-0.3-0.1-0.6-0.3-0.8
		c-0.2-0.2-0.5-0.3-0.8-0.3h-3.9c-0.6,0-1.1,0.5-1.1,1.1c0,1.4-0.5,2-1.9,3.5c-2.4,2-3.9,5.2-4,8.6c0.1,3.4,1.6,6.6,4,8.6
		c1.4,1.5,1.9,2.1,1.9,3.5c0,1.4-0.5,2-1.9,3.5c-2.4,2-3.9,5.2-4,8.6c0,0.3,0.1,0.6,0.3,0.8c0.2,0.2,0.5,0.3,0.8,0.3h3.9
		c0.6,0,1.1-0.5,1.1-1.1c0-1.5,0.5-2.1,1.9-3.5c2.4-2,3.9-5.2,4-8.6C121.7,21.9,120.2,18.7,117.8,16.7z"/>
</g>
<path class="st1" d="M167.7,85c1.9-2,3-4.7,3-7.5c0.1-5.8-4.5-10.5-10.2-10.6h-3.1c-0.1,6.9-1.6,13.6-4.4,19.9
	c-0.2,0.5-0.5,0.9-0.7,1.3h8.1C163.2,88.1,165.8,86.9,167.7,85z"/>
<path class="st1" d="M60.8,81.4c-0.5-0.1-1-0.2-1.5-0.2c0,0,0,0,0,0C59.8,81.2,60.3,81.3,60.8,81.4z"/>
<path class="st1" d="M104.8,115.4c0-0.2,0-0.4,0-0.5h0C104.8,115.1,104.8,115.2,104.8,115.4z"/>
</svg>
