<?xml version="1.0" encoding="utf-8"?>
<!-- Generator: Adobe Illustrator 22.0.1, SVG Export Plug-In . SVG Version: 6.00 Build 0)  -->
<svg version="1.1" id="Calque_1" xmlns="http://www.w3.org/2000/svg" xmlns:xlink="http://www.w3.org/1999/xlink" x="0px" y="0px"
	 viewBox="0 0 590.3 168" style="enable-background:new 0 0 590.3 168;" xml:space="preserve">
<style type="text/css">
	.st0{fill:#FF7900;}
	.st1{enable-background:new    ;}
	.st2{fill:#FFFFFF;}
</style>
<path class="st0" d="M580.2,0H10.1C4.5,0,0,4.5,0,10.1V125c0,5.6,4.5,10.1,10.1,10.1h454.2l12.1,17.4l10.1,14.5c1,1.4,3.1,1.4,4.1,0
	l10.1-14.5l12.1-17.4h67.3c5.6,0,10.1-4.5,10.1-10.1V10.1C590.3,4.5,585.8,0,580.2,0z"/>
<g class="st1">
	<path class="st2" d="M39.6,61.6V36.1h7.9c2.2,0,4.3,0.5,6,1.5c1.8,1,3.2,2.4,4.1,4.3c1,1.9,1.5,4,1.5,6.4v1.2
		c0,2.4-0.5,4.5-1.5,6.3c-1,1.8-2.4,3.3-4.1,4.3s-3.8,1.5-6,1.5H39.6z M44.9,40.4v17h2.5c2.1,0,3.6-0.7,4.7-2s1.6-3.3,1.7-5.8v-1.3
		c0-2.6-0.5-4.6-1.6-5.9c-1.1-1.3-2.6-2-4.7-2H44.9z"/>
	<path class="st2" d="M62.6,37.8c0-0.8,0.3-1.4,0.8-1.9c0.5-0.5,1.2-0.7,2.1-0.7c0.9,0,1.6,0.2,2.1,0.7c0.5,0.5,0.8,1.1,0.8,1.9
		c0,0.8-0.3,1.4-0.8,1.9c-0.5,0.5-1.2,0.7-2.1,0.7c-0.9,0-1.5-0.2-2.1-0.7S62.6,38.5,62.6,37.8z M67.9,61.6h-5.1v-19h5.1V61.6z"/>
	<path class="st2" d="M78.2,38v4.7h3.2v3.7h-3.2v9.5c0,0.7,0.1,1.2,0.4,1.5c0.3,0.3,0.8,0.5,1.5,0.5c0.6,0,1.1,0,1.5-0.1v3.8
		c-1,0.3-2,0.5-3.1,0.5c-3.6,0-5.4-1.8-5.4-5.4V46.4h-2.8v-3.7h2.8V38H78.2z"/>
	<path class="st2" d="M93,62c-2.8,0-5-0.9-6.8-2.6c-1.7-1.7-2.6-4-2.6-6.8v-0.5c0-1.9,0.4-3.6,1.1-5.1s1.8-2.7,3.1-3.5
		c1.4-0.8,2.9-1.2,4.6-1.2c2.6,0,4.6,0.8,6.1,2.5c1.5,1.6,2.2,4,2.2,7v2.1H88.7c0.2,1.2,0.7,2.2,1.5,3c0.8,0.7,1.9,1.1,3.1,1.1
		c2,0,3.5-0.7,4.6-2.1l2.5,2.8c-0.8,1.1-1.8,1.9-3.1,2.5C96,61.7,94.6,62,93,62z M92.4,46.4c-1,0-1.8,0.3-2.4,1
		c-0.6,0.7-1,1.7-1.2,2.9h7v-0.4c0-1.1-0.3-2-0.9-2.6S93.5,46.4,92.4,46.4z"/>
	<path class="st2" d="M113.9,56.4c0-0.6-0.3-1.1-0.9-1.5c-0.6-0.4-1.6-0.7-3-1c-4.5-0.9-6.8-2.9-6.8-5.8c0-1.7,0.7-3.1,2.1-4.2
		c1.4-1.1,3.2-1.7,5.5-1.7c2.4,0,4.3,0.6,5.8,1.7s2.2,2.6,2.2,4.4h-5.1c0-0.7-0.2-1.3-0.7-1.8c-0.5-0.5-1.2-0.7-2.2-0.7
		c-0.9,0-1.5,0.2-2,0.6c-0.5,0.4-0.7,0.9-0.7,1.5c0,0.6,0.3,1,0.8,1.4s1.4,0.6,2.7,0.9c1.3,0.3,2.3,0.5,3.2,0.9c2.7,1,4,2.7,4,5.1
		c0,1.7-0.7,3.1-2.2,4.2c-1.5,1.1-3.4,1.6-5.8,1.6c-1.6,0-3-0.3-4.2-0.9c-1.2-0.6-2.2-1.3-2.9-2.3s-1.1-2.1-1.1-3.2h4.8
		c0,0.9,0.4,1.6,1,2.1c0.6,0.5,1.4,0.7,2.5,0.7c1,0,1.7-0.2,2.2-0.6S113.9,57,113.9,56.4z"/>
	<path class="st2" d="M133.8,37.1l-0.7,7.2h-2.8v-9.6h3.5V37.1z M139.5,37.1l-0.7,7.2H136v-9.6h3.5V37.1z"/>
	<path class="st2" d="M142.9,61.6V36.1h8.9c3.1,0,5.4,0.6,7,1.8c1.6,1.2,2.4,2.9,2.4,5.2c0,1.2-0.3,2.4-1,3.3
		c-0.6,1-1.5,1.7-2.7,2.1c1.3,0.3,2.3,1,3.1,2c0.8,1,1.1,2.2,1.1,3.6c0,2.5-0.8,4.3-2.3,5.6c-1.6,1.3-3.8,1.9-6.7,1.9H142.9z
		 M148.2,46.8h3.9c2.7,0,4-1.1,4-3.2c0-1.2-0.3-2-1-2.5s-1.7-0.8-3.2-0.8h-3.7V46.8z M148.2,50.5v6.9h4.5c1.2,0,2.2-0.3,2.9-0.9
		s1-1.4,1-2.4c0-2.3-1.2-3.5-3.6-3.6H148.2z"/>
	<path class="st2" d="M164.7,52c0-1.9,0.4-3.6,1.1-5c0.7-1.5,1.8-2.6,3.1-3.4c1.4-0.8,2.9-1.2,4.7-1.2c2.6,0,4.6,0.8,6.3,2.3
		c1.6,1.6,2.5,3.7,2.7,6.4l0,1.3c0,2.9-0.8,5.2-2.4,7c-1.6,1.8-3.8,2.6-6.5,2.6c-2.7,0-4.9-0.9-6.5-2.6s-2.4-4.1-2.4-7.2V52z
		 M169.8,52.3c0,1.8,0.3,3.2,1,4.1s1.6,1.4,2.9,1.4c1.2,0,2.2-0.5,2.9-1.4c0.7-0.9,1-2.4,1-4.5c0-1.8-0.3-3.1-1-4.1
		c-0.7-1-1.7-1.5-2.9-1.5c-1.2,0-2.2,0.5-2.9,1.4S169.8,50.3,169.8,52.3z"/>
	<path class="st2" d="M190.5,42.7l0.2,2.2c1.4-1.7,3.2-2.5,5.5-2.5c2,0,3.5,0.6,4.5,1.8c1,1.2,1.5,2.9,1.5,5.3v12.3H197V49.5
		c0-1.1-0.2-1.9-0.7-2.3c-0.5-0.5-1.2-0.7-2.3-0.7c-1.4,0-2.5,0.6-3.2,1.8v13.4h-5.1v-19H190.5z"/>
	<path class="st2" d="M211.3,42.7v20c0,2.1-0.6,3.7-1.7,4.9s-2.7,1.7-4.8,1.7c-0.9,0-1.7-0.1-2.5-0.3v-4c0.6,0.1,1.1,0.2,1.6,0.2
		c1.5,0,2.3-0.8,2.3-2.4v-20H211.3z M205.8,37.8c0-0.8,0.3-1.4,0.8-1.9c0.5-0.5,1.2-0.7,2.1-0.7c0.9,0,1.6,0.2,2.1,0.7
		c0.5,0.5,0.8,1.1,0.8,1.9c0,0.8-0.3,1.4-0.8,1.9s-1.2,0.7-2.1,0.7s-1.5-0.2-2.1-0.7C206,39.2,205.8,38.5,205.8,37.8z"/>
	<path class="st2" d="M214.4,52c0-1.9,0.4-3.6,1.1-5c0.7-1.5,1.8-2.6,3.1-3.4c1.4-0.8,2.9-1.2,4.7-1.2c2.6,0,4.6,0.8,6.3,2.3
		c1.6,1.6,2.5,3.7,2.7,6.4l0,1.3c0,2.9-0.8,5.2-2.4,7c-1.6,1.8-3.8,2.6-6.5,2.6c-2.7,0-4.9-0.9-6.5-2.6s-2.4-4.1-2.4-7.2V52z
		 M219.5,52.3c0,1.8,0.3,3.2,1,4.1s1.6,1.4,2.9,1.4c1.2,0,2.2-0.5,2.9-1.4c0.7-0.9,1-2.4,1-4.5c0-1.8-0.3-3.1-1-4.1
		c-0.7-1-1.7-1.5-2.9-1.5c-1.2,0-2.2,0.5-2.9,1.4S219.5,50.3,219.5,52.3z"/>
	<path class="st2" d="M246.9,59.7c-1.3,1.5-3,2.3-5.2,2.3c-2,0-3.6-0.6-4.7-1.8s-1.6-2.9-1.6-5.1V42.7h5.1v12.3c0,2,0.9,3,2.7,3
		c1.7,0,2.9-0.6,3.5-1.8V42.7h5.1v19H247L246.9,59.7z"/>
	<path class="st2" d="M266.3,47.4c-0.7-0.1-1.3-0.1-1.8-0.1c-1.9,0-3.2,0.6-3.8,1.9v12.4h-5.1v-19h4.8l0.1,2.3
		c1-1.7,2.4-2.6,4.2-2.6c0.6,0,1.1,0.1,1.6,0.2L266.3,47.4z"/>
	<path class="st2" d="M271.7,37.1l-0.7,7.2h-2.8v-9.6h3.5V37.1z M277.4,37.1l-0.7,7.2h-2.8v-9.6h3.5V37.1z"/>
	<path class="st2" d="M300.4,61.6c-0.2-0.5-0.4-1-0.5-1.7c-1.2,1.4-2.8,2.1-4.8,2.1c-1.9,0-3.4-0.5-4.6-1.6
		c-1.2-1.1-1.8-2.4-1.8-4.1c0-2,0.7-3.6,2.2-4.6s3.6-1.6,6.5-1.6h2.3V49c0-0.9-0.2-1.6-0.7-2.1c-0.4-0.5-1.2-0.8-2.1-0.8
		c-0.9,0-1.5,0.2-2,0.6c-0.5,0.4-0.7,1-0.7,1.7h-5.1c0-1.1,0.3-2.1,1-3c0.7-0.9,1.6-1.7,2.9-2.2c1.2-0.5,2.6-0.8,4.2-0.8
		c2.3,0,4.2,0.6,5.6,1.8s2.1,2.8,2.1,5v8.2c0,1.8,0.3,3.2,0.8,4.1v0.3H300.4z M299.7,40.1h-4.2l-4.8-5.4h5.5L299.7,40.1z
		 M296.3,58.1c0.7,0,1.4-0.2,2.1-0.5c0.6-0.3,1.1-0.8,1.4-1.3V53h-1.9c-2.5,0-3.9,0.9-4.1,2.6l0,0.3c0,0.6,0.2,1.2,0.7,1.6
		C294.9,57.9,295.5,58.1,296.3,58.1z"/>
	<path class="st2" d="M324.7,55.5l3.5-12.8h5.3l-6.4,19h-4.8l-6.4-19h5.3L324.7,55.5z"/>
	<path class="st2" d="M334.7,52c0-1.9,0.4-3.6,1.1-5s1.8-2.6,3.1-3.4c1.4-0.8,2.9-1.2,4.7-1.2c2.6,0,4.6,0.8,6.3,2.3
		c1.6,1.6,2.5,3.7,2.7,6.4l0,1.3c0,2.9-0.8,5.2-2.4,7c-1.6,1.8-3.8,2.6-6.5,2.6c-2.7,0-4.9-0.9-6.5-2.6c-1.6-1.8-2.4-4.1-2.4-7.2V52
		z M339.8,52.3c0,1.8,0.3,3.2,1,4.1s1.6,1.4,2.9,1.4c1.2,0,2.2-0.5,2.9-1.4s1-2.4,1-4.5c0-1.8-0.3-3.1-1-4.1s-1.7-1.5-2.9-1.5
		c-1.2,0-2.2,0.5-2.9,1.4S339.8,50.3,339.8,52.3z"/>
	<path class="st2" d="M361.9,38v4.7h3.2v3.7h-3.2v9.5c0,0.7,0.1,1.2,0.4,1.5s0.8,0.5,1.5,0.5c0.6,0,1.1,0,1.5-0.1v3.8
		c-1,0.3-2,0.5-3.1,0.5c-3.6,0-5.4-1.8-5.4-5.4V46.4h-2.8v-3.7h2.8V38H361.9z"/>
	<path class="st2" d="M378.6,47.4c-0.7-0.1-1.3-0.1-1.8-0.1c-1.9,0-3.2,0.6-3.8,1.9v12.4H368v-19h4.8l0.1,2.3c1-1.7,2.4-2.6,4.2-2.6
		c0.6,0,1.1,0.1,1.6,0.2L378.6,47.4z"/>
	<path class="st2" d="M389.5,62c-2.8,0-5-0.9-6.8-2.6c-1.7-1.7-2.6-4-2.6-6.8v-0.5c0-1.9,0.4-3.6,1.1-5.1s1.8-2.7,3.1-3.5
		c1.3-0.8,2.9-1.2,4.6-1.2c2.6,0,4.6,0.8,6.1,2.5c1.5,1.6,2.2,4,2.2,7v2.1h-12.1c0.2,1.2,0.7,2.2,1.5,3c0.8,0.7,1.9,1.1,3.1,1.1
		c2,0,3.5-0.7,4.6-2.1l2.5,2.8c-0.8,1.1-1.8,1.9-3.1,2.5C392.5,61.7,391,62,389.5,62z M388.9,46.4c-1,0-1.8,0.3-2.4,1
		c-0.6,0.7-1,1.7-1.2,2.9h7v-0.4c0-1.1-0.3-2-0.9-2.6C390.8,46.7,390,46.4,388.9,46.4z"/>
	<path class="st2" d="M413.7,42.7l0.2,2.2c1.4-1.7,3.2-2.5,5.5-2.5c2,0,3.5,0.6,4.5,1.8c1,1.2,1.5,2.9,1.5,5.3v12.3h-5.1V49.5
		c0-1.1-0.2-1.9-0.7-2.3c-0.5-0.5-1.2-0.7-2.3-0.7c-1.4,0-2.5,0.6-3.2,1.8v13.4H409v-19H413.7z"/>
	<path class="st2" d="M428.4,52c0-1.9,0.4-3.6,1.1-5s1.8-2.6,3.1-3.4c1.4-0.8,2.9-1.2,4.7-1.2c2.6,0,4.6,0.8,6.3,2.3
		c1.6,1.6,2.5,3.7,2.7,6.4l0,1.3c0,2.9-0.8,5.2-2.4,7c-1.6,1.8-3.8,2.6-6.5,2.6c-2.7,0-4.9-0.9-6.5-2.6c-1.6-1.8-2.4-4.1-2.4-7.2V52
		z M433.5,52.3c0,1.8,0.3,3.2,1,4.1s1.6,1.4,2.9,1.4c1.2,0,2.2-0.5,2.9-1.4s1-2.4,1-4.5c0-1.8-0.3-3.1-1-4.1s-1.7-1.5-2.9-1.5
		c-1.2,0-2.2,0.5-2.9,1.4S433.5,50.3,433.5,52.3z"/>
	<path class="st2" d="M460.8,59.7c-1.3,1.5-3,2.3-5.2,2.3c-2,0-3.6-0.6-4.7-1.8c-1.1-1.2-1.6-2.9-1.6-5.1V42.7h5.1v12.3
		c0,2,0.9,3,2.7,3c1.7,0,2.9-0.6,3.5-1.8V42.7h5.1v19H461L460.8,59.7z"/>
	<path class="st2" d="M476.7,55.5l3.5-12.8h5.3l-6.4,19h-4.8l-6.4-19h5.3L476.7,55.5z"/>
	<path class="st2" d="M496.2,62c-2.8,0-5-0.9-6.8-2.6c-1.7-1.7-2.6-4-2.6-6.8v-0.5c0-1.9,0.4-3.6,1.1-5.1s1.8-2.7,3.1-3.5
		c1.3-0.8,2.9-1.2,4.6-1.2c2.6,0,4.6,0.8,6.1,2.5c1.5,1.6,2.2,4,2.2,7v2.1h-12.1c0.2,1.2,0.7,2.2,1.5,3c0.8,0.7,1.9,1.1,3.1,1.1
		c2,0,3.5-0.7,4.6-2.1l2.5,2.8c-0.8,1.1-1.8,1.9-3.1,2.5C499.2,61.7,497.8,62,496.2,62z M495.6,46.4c-1,0-1.8,0.3-2.4,1
		c-0.6,0.7-1,1.7-1.2,2.9h7v-0.4c0-1.1-0.3-2-0.9-2.6C497.5,46.7,496.7,46.4,495.6,46.4z"/>
	<path class="st2" d="M512.2,61.6h-5.1V34.7h5.1V61.6z"/>
	<path class="st2" d="M521.8,61.6h-5.1V34.7h5.1V61.6z"/>
	<path class="st2" d="M534.7,62c-2.8,0-5-0.9-6.8-2.6c-1.7-1.7-2.6-4-2.6-6.8v-0.5c0-1.9,0.4-3.6,1.1-5.1s1.8-2.7,3.1-3.5
		c1.3-0.8,2.9-1.2,4.6-1.2c2.6,0,4.6,0.8,6.1,2.5c1.5,1.6,2.2,4,2.2,7v2.1h-12.1c0.2,1.2,0.7,2.2,1.5,3c0.8,0.7,1.9,1.1,3.1,1.1
		c2,0,3.5-0.7,4.6-2.1l2.5,2.8c-0.8,1.1-1.8,1.9-3.1,2.5C537.7,61.7,536.2,62,534.7,62z M534.1,46.4c-1,0-1.8,0.3-2.4,1
		c-0.6,0.7-1,1.7-1.2,2.9h7v-0.4c0-1.1-0.3-2-0.9-2.6C536,46.7,535.2,46.4,534.1,46.4z"/>
</g>
<g class="st1">
	<path class="st2" d="M149.4,104.7c-0.2-0.5-0.4-1-0.5-1.7c-1.2,1.4-2.8,2.1-4.8,2.1c-1.9,0-3.4-0.5-4.6-1.6
		c-1.2-1.1-1.8-2.4-1.8-4.1c0-2,0.7-3.6,2.2-4.6s3.6-1.6,6.5-1.6h2.3v-1.1c0-0.9-0.2-1.6-0.7-2.1c-0.5-0.5-1.2-0.8-2.1-0.8
		c-0.9,0-1.5,0.2-2,0.6s-0.7,1-0.7,1.7H138c0-1.1,0.3-2.1,1-3c0.7-0.9,1.6-1.7,2.9-2.2c1.2-0.5,2.6-0.8,4.2-0.8
		c2.3,0,4.2,0.6,5.6,1.8c1.4,1.2,2.1,2.8,2.1,5v8.2c0,1.8,0.3,3.2,0.8,4.1v0.3H149.4z M145.2,101.2c0.7,0,1.4-0.2,2.1-0.5
		c0.6-0.3,1.1-0.8,1.4-1.3v-3.3h-1.9c-2.5,0-3.9,0.9-4,2.6l0,0.3c0,0.6,0.2,1.2,0.7,1.6C143.8,101,144.4,101.2,145.2,101.2z"/>
	<path class="st2" d="M167.9,99.5c0-0.6-0.3-1.1-0.9-1.5c-0.6-0.4-1.6-0.7-3-1c-4.5-0.9-6.8-2.9-6.8-5.8c0-1.7,0.7-3.1,2.1-4.2
		c1.4-1.1,3.2-1.7,5.5-1.7c2.4,0,4.3,0.6,5.8,1.7s2.2,2.6,2.2,4.4h-5.1c0-0.7-0.2-1.3-0.7-1.8c-0.5-0.5-1.2-0.7-2.2-0.7
		c-0.9,0-1.5,0.2-2,0.6c-0.5,0.4-0.7,0.9-0.7,1.5c0,0.6,0.3,1,0.8,1.4s1.4,0.6,2.7,0.9c1.3,0.3,2.3,0.5,3.2,0.9c2.7,1,4,2.7,4,5.1
		c0,1.7-0.7,3.1-2.2,4.2c-1.5,1.1-3.4,1.6-5.8,1.6c-1.6,0-3-0.3-4.2-0.9c-1.2-0.6-2.2-1.3-2.9-2.3s-1.1-2.1-1.1-3.2h4.8
		c0,0.9,0.4,1.6,1,2.1c0.6,0.5,1.4,0.7,2.5,0.7c1,0,1.7-0.2,2.2-0.6S167.9,100.1,167.9,99.5z"/>
	<path class="st2" d="M186.4,99.5c0-0.6-0.3-1.1-0.9-1.5c-0.6-0.4-1.6-0.7-3-1c-4.5-0.9-6.8-2.9-6.8-5.8c0-1.7,0.7-3.1,2.1-4.2
		c1.4-1.1,3.2-1.7,5.5-1.7c2.4,0,4.3,0.6,5.8,1.7s2.2,2.6,2.2,4.4h-5.1c0-0.7-0.2-1.3-0.7-1.8c-0.5-0.5-1.2-0.7-2.2-0.7
		c-0.9,0-1.5,0.2-2,0.6c-0.5,0.4-0.7,0.9-0.7,1.5c0,0.6,0.3,1,0.8,1.4s1.4,0.6,2.7,0.9c1.3,0.3,2.3,0.5,3.2,0.9c2.7,1,4,2.7,4,5.1
		c0,1.7-0.7,3.1-2.2,4.2c-1.5,1.1-3.4,1.6-5.8,1.6c-1.6,0-3-0.3-4.2-0.9c-1.2-0.6-2.2-1.3-2.9-2.3s-1.1-2.1-1.1-3.2h4.8
		c0,0.9,0.4,1.6,1,2.1c0.6,0.5,1.4,0.7,2.5,0.7c1,0,1.7-0.2,2.2-0.6S186.4,100.1,186.4,99.5z"/>
	<path class="st2" d="M194.5,80.9c0-0.8,0.3-1.4,0.8-1.9c0.5-0.5,1.2-0.7,2.1-0.7c0.9,0,1.6,0.2,2.1,0.7c0.5,0.5,0.8,1.1,0.8,1.9
		c0,0.8-0.3,1.4-0.8,1.9c-0.5,0.5-1.2,0.7-2.1,0.7c-0.9,0-1.5-0.2-2.1-0.7S194.5,81.6,194.5,80.9z M199.9,104.7h-5.1v-19h5.1V104.7z
		"/>
	<path class="st2" d="M214.3,99.5c0-0.6-0.3-1.1-0.9-1.5c-0.6-0.4-1.6-0.7-3-1c-4.5-0.9-6.8-2.9-6.8-5.8c0-1.7,0.7-3.1,2.1-4.2
		c1.4-1.1,3.2-1.7,5.5-1.7c2.4,0,4.3,0.6,5.8,1.7s2.2,2.6,2.2,4.4h-5.1c0-0.7-0.2-1.3-0.7-1.8c-0.5-0.5-1.2-0.7-2.2-0.7
		c-0.9,0-1.5,0.2-2,0.6c-0.5,0.4-0.7,0.9-0.7,1.5c0,0.6,0.3,1,0.8,1.4s1.4,0.6,2.7,0.9c1.3,0.3,2.3,0.5,3.2,0.9c2.7,1,4,2.7,4,5.1
		c0,1.7-0.7,3.1-2.2,4.2c-1.5,1.1-3.4,1.6-5.8,1.6c-1.6,0-3-0.3-4.2-0.9c-1.2-0.6-2.2-1.3-2.9-2.3s-1.1-2.1-1.1-3.2h4.8
		c0,0.9,0.4,1.6,1,2.1c0.6,0.5,1.4,0.7,2.5,0.7c1,0,1.7-0.2,2.2-0.6S214.3,100.1,214.3,99.5z"/>
	<path class="st2" d="M228.6,81.1v4.7h3.2v3.7h-3.2V99c0,0.7,0.1,1.2,0.4,1.5c0.3,0.3,0.8,0.5,1.5,0.5c0.6,0,1.1,0,1.5-0.1v3.8
		c-1,0.3-2,0.5-3.1,0.5c-3.6,0-5.4-1.8-5.4-5.4V89.5h-2.8v-3.7h2.8v-4.7H228.6z"/>
	<path class="st2" d="M245.6,104.7c-0.2-0.5-0.4-1-0.5-1.7c-1.2,1.4-2.8,2.1-4.8,2.1c-1.9,0-3.4-0.5-4.6-1.6
		c-1.2-1.1-1.8-2.4-1.8-4.1c0-2,0.7-3.6,2.2-4.6s3.6-1.6,6.5-1.6h2.3v-1.1c0-0.9-0.2-1.6-0.7-2.1c-0.5-0.5-1.2-0.8-2.1-0.8
		c-0.9,0-1.5,0.2-2,0.6s-0.7,1-0.7,1.7h-5.1c0-1.1,0.3-2.1,1-3c0.7-0.9,1.6-1.7,2.9-2.2c1.2-0.5,2.6-0.8,4.2-0.8
		c2.3,0,4.2,0.6,5.6,1.8c1.4,1.2,2.1,2.8,2.1,5v8.2c0,1.8,0.3,3.2,0.8,4.1v0.3H245.6z M241.5,101.2c0.7,0,1.4-0.2,2.1-0.5
		c0.6-0.3,1.1-0.8,1.4-1.3v-3.3H243c-2.5,0-3.9,0.9-4,2.6l0,0.3c0,0.6,0.2,1.2,0.7,1.6C240.1,101,240.7,101.2,241.5,101.2z"/>
	<path class="st2" d="M258.6,85.8l0.2,2.2c1.4-1.7,3.2-2.5,5.5-2.5c2,0,3.5,0.6,4.5,1.8c1,1.2,1.5,2.9,1.5,5.3v12.3h-5.1V92.6
		c0-1.1-0.2-1.9-0.7-2.3c-0.5-0.5-1.2-0.7-2.3-0.7c-1.4,0-2.5,0.6-3.2,1.8v13.4h-5.1v-19H258.6z"/>
	<path class="st2" d="M280.1,81.1v4.7h3.2v3.7h-3.2V99c0,0.7,0.1,1.2,0.4,1.5c0.3,0.3,0.8,0.5,1.5,0.5c0.6,0,1.1,0,1.5-0.1v3.8
		c-1,0.3-2,0.5-3.1,0.5c-3.6,0-5.4-1.8-5.4-5.4V89.5h-2.8v-3.7h2.8v-4.7H280.1z"/>
	<path class="st2" d="M312.2,95.4c0,2.9-0.7,5.3-2,7c-1.3,1.8-3.1,2.6-5.4,2.6c-1.9,0-3.5-0.7-4.6-2v8.9h-5.1V85.8h4.7l0.2,1.9
		c1.2-1.5,2.8-2.2,4.8-2.2c2.3,0,4.2,0.9,5.5,2.6s1.9,4.1,1.9,7.2V95.4z M307.1,95.1c0-1.8-0.3-3.1-0.9-4.1c-0.6-1-1.5-1.4-2.7-1.4
		c-1.6,0-2.7,0.6-3.3,1.8v7.8c0.6,1.3,1.7,1.9,3.3,1.9C305.9,101,307.1,99,307.1,95.1z"/>
	<path class="st2" d="M324,105.1c-2.8,0-5-0.9-6.8-2.6c-1.7-1.7-2.6-4-2.6-6.8v-0.5c0-1.9,0.4-3.6,1.1-5.1s1.8-2.7,3.1-3.5
		c1.4-0.8,2.9-1.2,4.6-1.2c2.6,0,4.6,0.8,6.1,2.5c1.5,1.6,2.2,4,2.2,7v2.1h-12.1c0.2,1.2,0.7,2.2,1.5,3c0.8,0.7,1.9,1.1,3.1,1.1
		c2,0,3.5-0.7,4.6-2.1l2.5,2.8c-0.8,1.1-1.8,1.9-3.1,2.5C327,104.8,325.6,105.1,324,105.1z M323.4,89.5c-1,0-1.8,0.3-2.4,1
		c-0.6,0.7-1,1.7-1.2,2.9h7V93c0-1.1-0.3-2-0.9-2.6C325.3,89.8,324.5,89.5,323.4,89.5z"/>
	<path class="st2" d="M345.4,90.5c-0.7-0.1-1.3-0.1-1.8-0.1c-1.9,0-3.2,0.6-3.8,1.9v12.4h-5.1v-19h4.8l0.1,2.3
		c1-1.7,2.4-2.6,4.2-2.6c0.6,0,1.1,0.1,1.6,0.2L345.4,90.5z"/>
	<path class="st2" d="M358.1,99.5c0-0.6-0.3-1.1-0.9-1.5c-0.6-0.4-1.6-0.7-3-1c-4.5-0.9-6.8-2.9-6.8-5.8c0-1.7,0.7-3.1,2.1-4.2
		s3.2-1.7,5.5-1.7c2.4,0,4.3,0.6,5.8,1.7s2.2,2.6,2.2,4.4h-5.1c0-0.7-0.2-1.3-0.7-1.8S356,89,355,89c-0.9,0-1.5,0.2-2,0.6
		c-0.5,0.4-0.7,0.9-0.7,1.5c0,0.6,0.3,1,0.8,1.4s1.4,0.6,2.7,0.9c1.3,0.3,2.3,0.5,3.2,0.9c2.7,1,4,2.7,4,5.1c0,1.7-0.7,3.1-2.2,4.2
		c-1.5,1.1-3.4,1.6-5.8,1.6c-1.6,0-3-0.3-4.2-0.9c-1.2-0.6-2.2-1.3-2.9-2.3c-0.7-1-1.1-2.1-1.1-3.2h4.8c0,0.9,0.4,1.6,1,2.1
		c0.6,0.5,1.4,0.7,2.5,0.7c1,0,1.7-0.2,2.2-0.6C357.8,100.6,358.1,100.1,358.1,99.5z"/>
	<path class="st2" d="M365.5,95.1c0-1.9,0.4-3.6,1.1-5s1.8-2.6,3.1-3.4c1.4-0.8,2.9-1.2,4.7-1.2c2.6,0,4.6,0.8,6.3,2.3
		c1.6,1.6,2.5,3.7,2.7,6.4l0,1.3c0,2.9-0.8,5.2-2.4,7c-1.6,1.8-3.8,2.6-6.5,2.6c-2.7,0-4.9-0.9-6.5-2.6c-1.6-1.8-2.4-4.1-2.4-7.2
		V95.1z M370.5,95.4c0,1.8,0.3,3.2,1,4.1s1.6,1.4,2.9,1.4c1.2,0,2.2-0.5,2.9-1.4s1-2.4,1-4.5c0-1.8-0.3-3.1-1-4.1s-1.7-1.5-2.9-1.5
		c-1.2,0-2.2,0.5-2.9,1.4S370.5,93.4,370.5,95.4z"/>
	<path class="st2" d="M391.2,85.8l0.2,2.2c1.4-1.7,3.2-2.5,5.5-2.5c2,0,3.5,0.6,4.5,1.8c1,1.2,1.5,2.9,1.5,5.3v12.3h-5.1V92.6
		c0-1.1-0.2-1.9-0.7-2.3c-0.5-0.5-1.2-0.7-2.3-0.7c-1.4,0-2.5,0.6-3.2,1.8v13.4h-5.1v-19H391.2z"/>
	<path class="st2" d="M411.3,85.8l0.2,2.2c1.4-1.7,3.2-2.5,5.5-2.5c2,0,3.5,0.6,4.5,1.8c1,1.2,1.5,2.9,1.5,5.3v12.3h-5.1V92.6
		c0-1.1-0.2-1.9-0.7-2.3c-0.5-0.5-1.2-0.7-2.3-0.7c-1.4,0-2.5,0.6-3.2,1.8v13.4h-5.1v-19H411.3z"/>
	<path class="st2" d="M435.5,105.1c-2.8,0-5-0.9-6.8-2.6c-1.7-1.7-2.6-4-2.6-6.8v-0.5c0-1.9,0.4-3.6,1.1-5.1s1.8-2.7,3.1-3.5
		c1.3-0.8,2.9-1.2,4.6-1.2c2.6,0,4.6,0.8,6.1,2.5c1.5,1.6,2.2,4,2.2,7v2.1h-12.1c0.2,1.2,0.7,2.2,1.5,3c0.8,0.7,1.9,1.1,3.1,1.1
		c2,0,3.5-0.7,4.6-2.1l2.5,2.8c-0.8,1.1-1.8,1.9-3.1,2.5C438.5,104.8,437.1,105.1,435.5,105.1z M434.9,89.5c-1,0-1.8,0.3-2.4,1
		c-0.6,0.7-1,1.7-1.2,2.9h7V93c0-1.1-0.3-2-0.9-2.6C436.8,89.8,436,89.5,434.9,89.5z"/>
	<path class="st2" d="M451.5,104.7h-5.1V77.8h5.1V104.7z"/>
</g>
</svg>
