<?xml version="1.0" encoding="utf-8"?>
<!-- Generator: Adobe Illustrator 22.0.1, SVG Export Plug-In . SVG Version: 6.00 Build 0)  -->
<svg version="1.1" id="Calque_1" xmlns="http://www.w3.org/2000/svg" xmlns:xlink="http://www.w3.org/1999/xlink" x="0px" y="0px"
	 viewBox="0 0 124 143.5" style="enable-background:new 0 0 124 143.5;" xml:space="preserve">
<style type="text/css">
	.st0{fill:#FF7900;}
</style>
<path class="st0" d="M123.9,44c-0.2-0.7-0.6-1.3-1.3-1.6L90.3,24.7c-0.3-0.2-0.7-0.3-1.2-0.3l-9.5-0.3c-0.8,0-1.6,0.3-2.2,0.9
	l-3.5,4.4l-9.3-7.1v-3.8c0-1.4-1.2-2.6-2.6-2.6c-3.1,0-5.5-2.3-5.5-5.3c0-2.9,2.5-5.3,5.5-5.3c3.1,0,5.6,2.4,5.6,5.3
	c0,1-0.3,1.9-0.9,2.8c-0.8,1.2-0.4,2.9,0.8,3.6c1.2,0.8,2.9,0.4,3.6-0.8c1.1-1.7,1.7-3.7,1.7-5.7C72.8,4.8,67.9,0,62,0
	c-5.9,0-10.7,4.8-10.7,10.6c0,4.7,3.4,8.9,8.1,10v1.7l-9.3,7L46.5,25c-0.5-0.6-1.3-1-2.1-0.9l-9.6,0.3c-0.4,0-0.8,0.1-1.1,0.3
	L1.4,42.4c-0.6,0.3-1.1,0.9-1.3,1.6c-0.2,0.7-0.1,1.5,0.3,2.1l15.2,24.1c0.7,1.1,2.3,1.5,3.4,0.9l2.8-1.4v67.1c0,1.2,0.8,2.2,2,2.5
	c11.3,2.8,24.8,4.2,38.3,4.2c13.5,0,27-1.4,38.3-4.2c1.1-0.3,2-1.4,2-2.5V69.7l2.8,1.4c1.2,0.6,2.7,0.2,3.4-0.9l15.2-24.1
	C124,45.5,124.1,44.7,123.9,44z M62,44l-8.6-10.6l8.6-6.5l8.6,6.5L62,44z"/>
</svg>
