<?xml version="1.0" encoding="utf-8"?>
<!-- Generator: Adobe Illustrator 22.0.1, SVG Export Plug-In . SVG Version: 6.00 Build 0)  -->
<svg version="1.1" id="Calque_1" xmlns="http://www.w3.org/2000/svg" xmlns:xlink="http://www.w3.org/1999/xlink" x="0px" y="0px"
	 viewBox="0 0 128 128" style="enable-background:new 0 0 128 128;" xml:space="preserve">
<style type="text/css">
	.st0{fill:#FFFFFF;}
</style>
<path class="st0" d="M64,97.5L22.9,52.4c-1.9-2-1.7-5.2,0.3-7.1c2-1.9,5.2-1.7,7.1,0.3l33.7,37l33.7-37c1.9-2,5-2.2,7.1-0.3
	c2,1.9,2.2,5,0.3,7.1L64,97.5z"/>
<path class="st0" d="M64,7c31.4,0,57,25.6,57,57s-25.6,57-57,57S7,95.4,7,64S32.6,7,64,7 M64,0C28.7,0,0,28.7,0,64s28.7,64,64,64
	s64-28.7,64-64S99.3,0,64,0L64,0z"/>
</svg>
