<?xml version="1.0" encoding="utf-8"?>
<!-- Generator: Adobe Illustrator 22.0.1, SVG Export Plug-In . SVG Version: 6.00 Build 0)  -->
<svg version="1.1"
	 id="Calque_1" xmlns:cc="http://creativecommons.org/ns#" xmlns:dc="http://purl.org/dc/elements/1.1/" xmlns:inkscape="http://www.inkscape.org/namespaces/inkscape" xmlns:rdf="http://www.w3.org/1999/02/22-rdf-syntax-ns#" xmlns:sodipodi="http://sodipodi.sourceforge.net/DTD/sodipodi-0.dtd" xmlns:svg="http://www.w3.org/2000/svg"
	 xmlns="http://www.w3.org/2000/svg" xmlns:xlink="http://www.w3.org/1999/xlink" x="0px" y="0px" viewBox="0 0 138.6 144"
	 style="enable-background:new 0 0 138.6 144;" xml:space="preserve">
<style type="text/css">
	.st0{fill:none;}
	.st1{fill:#FF7900;}
</style>
<circle class="st0" cx="114.1" cy="89.7" r="6.8"/>
<path class="st0" d="M133.2,89.7c0-10.9-8.5-19-19.1-19l0,0c-10.6,0-19,8.1-19,19c0,2.3,0.8,6.5,1.6,8.6c5.7,12,11.7,24.4,17.4,36.7
	c5.8-12.2,11.7-24.4,17.4-36.7C132.3,96.2,133.2,92,133.2,89.7z M114.1,101.9c-6.7,0-12.2-5.5-12.2-12.2c0-6.7,5.5-12.2,12.2-12.2
	c6.7,0,12.2,5.5,12.2,12.2C126.4,96.4,120.9,101.9,114.1,101.9z"/>
<path class="st1" d="M44.9,138.6c-8.3,0-14.9-6.6-14.9-14.9c0-8.3,6.6-14.9,14.9-14.9h16.3c9.7,0,17.7-7.9,17.7-17.7
	s-7.9-17.7-17.7-17.7H28.8L22,77.2c0.4,0.9,1.4,1.6,2.5,1.6h36.7c6.8,0,12.2,5.4,12.2,12.2s-5.4,12.2-12.2,12.2H44.9
	c-11.2,0-20.4,9.1-20.4,20.4S33.6,144,44.9,144h69.3c0.9,0,1.8-0.5,2.3-1.3l-6.6-4.2H44.9z"/>
<path class="st1" d="M136.7,100.2c1.1-3,1.9-7.2,1.9-10.5c0-13.8-11.1-24.4-24.5-24.4c-13.4,0-24.4,10.7-24.4,24.4
	c0,3.4,0.8,7.6,1.9,10.5c6.1,12.8,12.2,25.6,18.3,38.4l6.6,4.2c0.1-0.1,0.1-0.2,0.2-0.3C123.2,128.3,130.1,114.3,136.7,100.2z
	 M96.7,98.2c-0.8-2-1.6-6.3-1.6-8.6c0-10.9,8.4-19,19-19l0,0c10.6,0,19.1,8.1,19.1,19c0,2.3-0.8,6.5-1.6,8.6
	c-5.8,12.2-11.6,24.5-17.4,36.7C108.4,122.6,102.3,110.3,96.7,98.2z"/>
<path class="st1" d="M114.1,77.4c-6.7,0-12.2,5.5-12.2,12.2c0,6.7,5.5,12.2,12.2,12.2c6.7,0,12.2-5.5,12.2-12.2
	C126.4,83,120.9,77.4,114.1,77.4z M114.1,96.5c-3.8,0-6.8-3-6.8-6.8c0-3.8,3-6.8,6.8-6.8c3.8,0,6.8,3,6.8,6.8
	C120.9,93.5,117.9,96.5,114.1,96.5z"/>
<circle class="st0" cx="24.4" cy="24.4" r="6.8"/>
<path class="st0" d="M7,33c5.8,12.2,11.6,24.5,17.4,36.7C30.1,57.4,36.2,45,41.9,33c0.8-2,1.6-6.3,1.6-8.6c0-10.9-8.4-19-19-19l0,0
	c-10.6,0-19.1,8.1-19.1,19C5.4,26.7,6.2,30.9,7,33z M12.2,24.4c0-6.7,5.5-12.2,12.2-12.2c6.7,0,12.2,5.5,12.2,12.2
	c0,6.7-5.5,12.2-12.2,12.2C17.7,36.6,12.2,31.1,12.2,24.4z"/>
<path class="st1" d="M22,77.2c0.1,0.1,0.1,0.2,0.2,0.3l6.6-4.2C34.8,60.6,40.9,47.8,47,35c1.1-3,1.9-7.2,1.9-10.5
	C48.9,10.7,37.9,0,24.5,0C11.1,0,0,10.7,0,24.4C0,27.8,0.8,32,1.9,35C8.5,49.1,15.4,63.1,22,77.2z M24.4,69.7
	C18.6,57.5,12.8,45.2,7,33c-0.8-2-1.6-6.3-1.6-8.6c0-10.9,8.5-19,19.1-19l0,0c10.6,0,19,8.1,19,19c0,2.3-0.8,6.5-1.6,8.6
	C36.2,45,30.1,57.4,24.4,69.7z"/>
<path class="st1" d="M12.2,24.4c0,6.7,5.5,12.2,12.2,12.2c6.7,0,12.2-5.5,12.2-12.2c0-6.7-5.5-12.2-12.2-12.2
	C17.7,12.2,12.2,17.7,12.2,24.4z M17.7,24.4c0-3.8,3-6.8,6.8-6.8c3.8,0,6.8,3,6.8,6.8c0,3.8-3,6.8-6.8,6.8
	C20.7,31.2,17.7,28.2,17.7,24.4z"/>
</svg>
