<?xml version="1.0" encoding="utf-8"?>
<!-- Generator: Adobe Illustrator 22.0.1, SVG Export Plug-In . SVG Version: 6.00 Build 0)  -->
<svg version="1.1" id="Calque_1" xmlns="http://www.w3.org/2000/svg" xmlns:xlink="http://www.w3.org/1999/xlink" x="0px" y="0px"
	 viewBox="0 0 95 144" style="enable-background:new 0 0 95 144;" xml:space="preserve">
<style type="text/css">
	.st0{fill:#FF7900;}
</style>
<path class="st0" d="M54.7,144H40.3c-5.1,0-9.5-4.8-10-10.6l-4.9-66.2c-0.3-4.1-3.7-9-7.3-10.7c-0.3-0.2-7.9-3.8-14.4-10.3
	C1.3,43.9,0,40.8,0,37.6c0-3.2,1.2-6.3,3.5-8.6c2.3-2.3,5.3-3.6,8.5-3.6c3.2,0,6.3,1.2,8.6,3.5c14.9,14.6,38.9,14.4,53.6-0.5
	c2.3-2.3,5.3-3.6,8.5-3.6c0,0,0.1,0,0.1,0c3.2,0,6.2,1.2,8.5,3.5l0,0c4.8,4.7,4.8,12.4,0.2,17.2C85,52,77.3,55.9,76.9,56
	c-3.7,1.8-7,6.8-7.3,10.9l-5,66.5C64.2,139.2,59.8,144,54.7,144z M12.1,29.5C12.1,29.5,12.1,29.5,12.1,29.5c-2.2,0-4.2,0.9-5.7,2.4
	c-1.5,1.5-2.3,3.5-2.3,5.6c0,2.1,0.9,4.1,2.4,5.6c6,5.9,13.2,9.4,13.3,9.5c5,2.4,9.3,8.7,9.7,14.2l4.9,66.2c0.3,3.7,2.9,6.8,5.8,6.8
	h14.4c2.9,0,5.5-3.1,5.8-6.8l5-66.5c0.4-5.5,4.6-11.8,9.6-14.3c0.1,0,7.4-3.7,13.4-9.9c3.1-3.1,3-8.2-0.1-11.2
	c-1.5-1.5-3.5-2.3-5.6-2.3c0,0,0,0-0.1,0c-2.1,0-4.1,0.9-5.6,2.4c-16.3,16.6-43,16.8-59.5,0.5C16.2,30.3,14.2,29.5,12.1,29.5z"/>
<path class="st0" d="M47.5,36.1c-9.9,0-18-8.1-18-18s8.1-18,18-18s18,8.1,18,18S57.4,36.1,47.5,36.1z M47.5,4.2
	c-7.6,0-13.8,6.2-13.8,13.8s6.2,13.8,13.8,13.8c7.6,0,13.8-6.2,13.8-13.8S55.1,4.2,47.5,4.2z"/>
</svg>
