<?xml version="1.0" encoding="utf-8"?>
<!-- Generator: Adobe Illustrator 22.0.1, SVG Export Plug-In . SVG Version: 6.00 Build 0)  -->
<svg version="1.1" id="Calque_1" xmlns="http://www.w3.org/2000/svg" xmlns:xlink="http://www.w3.org/1999/xlink" x="0px" y="0px"
	 viewBox="0 0 210.3 144" style="enable-background:new 0 0 210.3 144;" xml:space="preserve">
<style type="text/css">
	.st0{fill:#FF7900;}
</style>
<path class="st0" d="M161.7,99.8c-0.5,0-1-0.2-1.4-0.6c-0.8-0.8-0.7-2,0-2.8c6.5-6.3,10-14.7,10-23.7c0-18.2-14.8-32.9-32.9-32.9
	c-8.4,0-16.3,3.1-22.4,8.8c-0.8,0.7-2,0.7-2.8-0.1c-0.7-0.8-0.7-2,0.1-2.8c6.8-6.3,15.7-9.8,25.1-9.8c20.3,0,36.9,16.5,36.9,36.9
	c0,10.1-4,19.5-11.2,26.5C162.6,99.6,162.1,99.8,161.7,99.8z"/>
<g>
	<g>
		<path class="st0" d="M80.1,46c21.6,0,39.6,16.2,41.8,37.6l0.4,3.5h3.5h2.6c15.3,0,27.8,11.9,27.8,26.5s-12.5,26.5-27.8,26.5H31.7
			c-15.3,0-27.8-11.9-27.8-26.5s12.5-26.5,27.8-26.5h2.6h3.5l0.4-3.5C40.5,62.1,58.5,46,80.1,46 M80.1,42
			c-23.6,0-43.3,17.9-45.8,41.1h-2.6C14.2,83.1,0,96.8,0,113.6C0,130.3,14.2,144,31.7,144h96.7c17.5,0,31.7-13.7,31.7-30.4
			s-14.2-30.4-31.7-30.4h-2.6C123.4,59.9,103.7,42,80.1,42L80.1,42z"/>
	</g>
</g>
<path class="st0" d="M105.8,43.1c-0.5,0-1-0.2-1.4-0.6L85.8,24c-0.8-0.8-0.8-2,0-2.8c0.8-0.8,2-0.8,2.8,0l18.6,18.6
	c0.8,0.8,0.8,2,0,2.8C106.8,42.9,106.3,43.1,105.8,43.1z"/>
<path class="st0" d="M137.4,30.1c-1.1,0-2-0.9-2-2V2c0-1.1,0.9-2,2-2c1.1,0,2,0.9,2,2v26.2C139.3,29.2,138.4,30.1,137.4,30.1z"/>
<path class="st0" d="M168.9,43.1c-0.5,0-1-0.2-1.4-0.6c-0.8-0.8-0.8-2,0-2.8l18.6-18.6c0.8-0.8,2-0.8,2.8,0c0.8,0.8,0.8,2,0,2.8
	l-18.6,18.6C169.9,42.9,169.4,43.1,168.9,43.1z"/>
<path class="st0" d="M208.3,74.7h-26.2c-1.1,0-2-0.9-2-2c0-1.1,0.9-2,2-2h26.2c1.1,0,2,0.9,2,2C210.3,73.8,209.4,74.7,208.3,74.7z"
	/>
<path class="st0" d="M187.5,124.8c-0.5,0-1-0.2-1.4-0.6l-18.6-18.6c-0.8-0.8-0.8-2,0-2.8c0.8-0.8,2-0.8,2.8,0l18.6,18.6
	c0.8,0.8,0.8,2,0,2.8C188.5,124.7,188,124.8,187.5,124.8z"/>
</svg>
