<?xml version="1.0" encoding="utf-8"?>
<!-- Generator: Adobe Illustrator 22.0.1, SVG Export Plug-In . SVG Version: 6.00 Build 0)  -->
<svg version="1.1" id="Calque_1" xmlns="http://www.w3.org/2000/svg" xmlns:xlink="http://www.w3.org/1999/xlink" x="0px" y="0px"
	 viewBox="0 0 133.5 144" style="enable-background:new 0 0 133.5 144;" xml:space="preserve">
<style type="text/css">
	.st0{fill:#FF7900;}
</style>
<path class="st0" d="M100.8,3c2,0,3.6,1.6,3.6,3.6v130.9c0,2-1.6,3.6-3.6,3.6H32.7c-2,0-3.6-1.6-3.6-3.6V6.6c0-2,1.6-3.6,3.6-3.6
	H100.8 M100.8,0H32.7c-3.6,0-6.6,2.9-6.6,6.6v130.9c0,3.6,2.9,6.6,6.6,6.6h68.1c3.6,0,6.6-2.9,6.6-6.6V6.6
	C107.4,2.9,104.4,0,100.8,0L100.8,0z"/>
<g>
	<circle class="st0" cx="66.8" cy="131.3" r="5.2"/>
</g>
<path class="st0" d="M97.9,122.9H35.6c-2.4,0-4.4-2-4.4-4.4V9.6c0-2.4,2-4.4,4.4-4.4h62.4c2.4,0,4.4,2,4.4,4.4v109
	C102.3,121,100.3,122.9,97.9,122.9z M35.6,8.2c-0.7,0-1.4,0.6-1.4,1.4v109c0,0.7,0.6,1.4,1.4,1.4h62.4c0.7,0,1.4-0.6,1.4-1.4V9.6
	c0-0.7-0.6-1.4-1.4-1.4H35.6z"/>
</svg>
