<?xml version="1.0" encoding="utf-8"?>
<!-- Generator: Adobe Illustrator 22.0.1, SVG Export Plug-In . SVG Version: 6.00 Build 0)  -->
<svg version="1.1"
	 id="Calque_1" xmlns:cc="http://creativecommons.org/ns#" xmlns:dc="http://purl.org/dc/elements/1.1/" xmlns:inkscape="http://www.inkscape.org/namespaces/inkscape" xmlns:rdf="http://www.w3.org/1999/02/22-rdf-syntax-ns#" xmlns:sodipodi="http://sodipodi.sourceforge.net/DTD/sodipodi-0.dtd" xmlns:svg="http://www.w3.org/2000/svg"
	 xmlns="http://www.w3.org/2000/svg" xmlns:xlink="http://www.w3.org/1999/xlink" x="0px" y="0px" viewBox="0 0 126.9 145"
	 style="enable-background:new 0 0 126.9 145;" xml:space="preserve">
<style type="text/css">
	.st0{fill:#FF7900;stroke:#FF7900;stroke-miterlimit:10;}
</style>
<path class="st0" d="M123.2,93.5c-1.6-2.1-3.9-3.6-6.3-4.2V50.7h-4.1v13H94l0,0c1.1-1.5,1.6-3.4,1.3-5.2c-0.3-1.9-1.3-3.6-2.8-4.7
	c-1.3-1-2.6-1.3-4.2-1.3c-2.3,0-4.4,1.1-5.7,2.9l-6.2,8.3h-2.9c-1.9-3.7-5.7-6.2-10.1-6.2s-8.1,2.4-10.1,6.2h-2.9l-6.2-8.4
	c-1.3-1.8-3.4-2.9-5.7-2.9c-1.5,0-2.9,0.5-4.2,1.3c-1.5,1.1-2.6,2.8-2.8,4.7s0.2,3.7,1.3,5.2l0,0H14.1v-13H10v38.8
	c-2.4,0.6-4.7,2.1-6.3,4.2c-2.4,3.1-3.6,7.5-3.1,11.7l2.6,20.3l1.9-0.3c1.6-0.2,3.2-0.3,4.9-0.5v19.8h4.1v-10.2h98.7v10.2h4.1v-19.8
	c1.6,0.2,3.2,0.3,4.9,0.5l1.9,0.3l2.6-20.3C126.8,101,125.6,96.6,123.2,93.5z M112.8,67.7V89c-2.3-0.2-4.4-0.5-6.7-0.6v-4.7
	c0-6.5-5.4-11.9-11.9-11.9H88l3.1-4.2h21.8V67.7z M85,75.8h9.3c4.2,0,7.8,3.4,7.8,7.8v4.2c-8.3-0.6-16.6-1.1-24.8-1.3L85,75.8z
	 M63.4,61.5c3.9,0,7.1,3.2,7.1,7.1c0,3.9-3.2,7.1-7.1,7.1s-7.1-3.2-7.1-7.1C56.3,64.8,59.5,61.5,63.4,61.5z M35.7,58.9
	c0.2-0.8,0.5-1.5,1.1-1.9c1.3-1,3.2-0.6,4.2,0.6l16.9,23.2h10.9l16.9-23.2c1-1.3,2.9-1.6,4.2-0.6c0.6,0.5,1.1,1.1,1.1,1.9
	c0.2,0.8,0,1.6-0.5,2.3L72.2,86.5c-2.9,0-5.8-0.2-8.8-0.2c-2.9,0-5.8,0-8.8,0.2L36.2,61.2C35.7,60.6,35.5,59.8,35.7,58.9z
	 M49.8,86.5c-8.3,0.2-16.6,0.6-24.8,1.3v-4.2c0-4.2,3.4-7.8,7.8-7.8h9.4L49.8,86.5z M35.8,67.7l3.1,4.2h-6.3
	c-6.5,0-11.9,5.4-11.9,11.9v4.5c-2.3,0.2-4.4,0.3-6.7,0.6V67.7H35.8z M112.8,130.4H14.1v-6c16.4-1.8,33-2.6,49.4-2.6s33,1,49.4,2.6
	V130.4z M122.2,104.7l-2.1,16.2c-18.7-2.3-37.8-3.4-56.7-3.4s-38,1.1-56.7,3.4l-2.1-16.4C4.2,101.3,5,98.2,6.8,96
	c1-1.1,2.6-2.6,5-2.9c17-1.8,34.4-2.8,51.6-2.8s34.6,1,51.6,2.8c2.4,0.3,4.1,1.8,5,2.9C121.9,98.4,122.7,101.5,122.2,104.7z"/>
<g>
	<path class="st0" d="M91.8,34.8c-6.2,0-11.3-5.1-11.3-11.3s5.1-11.3,11.3-11.3c6.3,0,11.3,5.1,11.3,11.3S98.1,34.8,91.8,34.8z
		 M91.8,15c-4.7,0-8.5,3.8-8.5,8.5s3.8,8.5,8.5,8.5c4.7,0,8.5-3.8,8.5-8.5S96.5,15,91.8,15z"/>
	<g>
		<path class="st0" d="M91.8,9c-0.8,0-1.4-0.6-1.4-1.4V1.9c0-0.8,0.6-1.4,1.4-1.4s1.4,0.6,1.4,1.4v5.7C93.3,8.3,92.6,9,91.8,9z"/>
		<path class="st0" d="M91.8,46.5c-0.8,0-1.4-0.6-1.4-1.4v-5.7c0-0.8,0.6-1.4,1.4-1.4s1.4,0.6,1.4,1.4v5.7
			C93.3,45.9,92.6,46.5,91.8,46.5z"/>
	</g>
	<g>
		<path class="st0" d="M103.1,13.6c-0.4,0-0.7-0.1-1-0.4c-0.5-0.5-0.5-1.4,0-2l4-4c0.5-0.5,1.4-0.5,2,0s0.5,1.4,0,2l-4,4
			C103.8,13.5,103.5,13.6,103.1,13.6z"/>
		<path class="st0" d="M76.6,40.2c-0.4,0-0.7-0.1-1-0.4c-0.5-0.5-0.5-1.4,0-2l4-4c0.5-0.5,1.4-0.5,2,0c0.5,0.5,0.5,1.4,0,2l-4,4
			C77.3,40.1,76.9,40.2,76.6,40.2z"/>
	</g>
	<g>
		<path class="st0" d="M113.5,24.9h-5.7c-0.8,0-1.4-0.6-1.4-1.4s0.6-1.4,1.4-1.4h5.7c0.8,0,1.4,0.6,1.4,1.4S114.2,24.9,113.5,24.9z"
			/>
		<path class="st0" d="M76,24.9h-5.7c-0.8,0-1.4-0.6-1.4-1.4s0.6-1.4,1.4-1.4H76c0.8,0,1.4,0.6,1.4,1.4S76.7,24.9,76,24.9z"/>
	</g>
	<g>
		<path class="st0" d="M107.1,40.2c-0.4,0-0.7-0.1-1-0.4l-4-4c-0.5-0.5-0.5-1.4,0-2s1.4-0.5,2,0l4,4c0.5,0.5,0.5,1.4,0,2
			C107.9,40.1,107.5,40.2,107.1,40.2z"/>
		<path class="st0" d="M80.6,13.6c-0.4,0-0.7-0.1-1-0.4l-4-4c-0.5-0.5-0.5-1.4,0-2c0.5-0.5,1.4-0.5,2,0l4,4c0.5,0.5,0.5,1.4,0,2
			C81.3,13.5,81,13.6,80.6,13.6z"/>
	</g>
</g>
</svg>
