<?xml version="1.0" encoding="utf-8"?>
<!-- Generator: Adobe Illustrator 22.0.1, SVG Export Plug-In . SVG Version: 6.00 Build 0)  -->
<svg version="1.1" id="Calque_1" xmlns="http://www.w3.org/2000/svg" xmlns:xlink="http://www.w3.org/1999/xlink" x="0px" y="0px"
	 viewBox="0 0 106.5 144" style="enable-background:new 0 0 106.5 144;" xml:space="preserve">
<style type="text/css">
	.st0{fill:#FF7900;}
</style>
<path class="st0" d="M31.7,56.8c8.5,0,15.5-7,15.5-15.5s-7-15.5-15.5-15.5s-15.5,7-15.5,15.5c0,4.1,1.6,8,4.5,11
	C23.7,55.2,27.6,56.8,31.7,56.8z"/>
<g>
	<path class="st0" d="M106.4,134.1c-1.8-10.2-4.5-20.3-7.9-30.1c-0.4-1.3-1.2-2.4-2.2-3.3v-0.3H96c-6.4-5.7-13.3-11.2-20.5-16.2
		c1.7-11.8,0.5-24-3.6-35.2c-0.8-2.2-2.2-4.2-4.1-5.7c-0.4-14.5-5.1-28.4-13.4-40.2c-1.1-1.6-2.8-2.7-4.8-3
		c-1.9-0.3-3.9,0.1-5.5,1.2c-3.3,2.3-4.1,6.9-1.8,10.3c6.5,9.2,10.2,19.9,10.7,31.2c-2.5,1.7-4.4,4.2-5.2,7.1
		c-0.9,3.3-0.5,6.7,1.2,9.6c0.3,0.6,0.7,1.2,1.2,1.8C46.5,72.2,40.2,82.1,32,90c-1.4,1.4-2.2,3.2-2.3,5.2c0,2,0.7,3.8,2.1,5.2
		c0.4,0.5,0.9,0.8,1.5,1.2C22,110,11.6,119.6,2.2,130c-3.1,3.4-2.8,8.7,0.6,11.8c1.5,1.4,3.5,2.2,5.6,2.2c2.4,0,4.6-1,6.2-2.8
		c8.7-9.7,18.4-18.5,28.9-26.3h0.2l0.1-0.2c6.5-5,12.8-10.5,18.6-16.5c1.1,0,2.3-0.1,3.5-0.5c6.1,4.3,12.1,8.9,17.6,13.8
		c2.8,8.4,5,17,6.5,25.6c0.7,4,4.2,6.9,8.2,6.9c0.5,0,1,0,1.5-0.1c2.2-0.4,4.1-1.6,5.4-3.5C106.3,138.6,106.8,136.3,106.4,134.1z
		 M66.3,63.8l-2.2,1c-0.7,2.5-3.3,11.1-10.1,20.9c-5,7.2-8.7,11.5-12.4,14.5c-0.3,0.2-0.6,0.3-0.9,0.3c-0.4,0-0.9-0.2-1.2-0.6
		c-0.5-0.6-0.4-1.6,0.2-2.1c3.5-2.8,7-7,11.8-13.9c7.6-10.9,9.8-20.5,9.9-20.6l0.2-0.7l3.6-1.6c0.8-0.3,1.6,0,2,0.8
		C67.4,62.5,67.1,63.4,66.3,63.8z"/>
</g>
</svg>
