<?xml version="1.0" encoding="utf-8"?>
<!-- Generator: Adobe Illustrator 22.0.1, SVG Export Plug-In . SVG Version: 6.00 Build 0)  -->
<svg version="1.1" id="Calque_1" xmlns="http://www.w3.org/2000/svg" xmlns:xlink="http://www.w3.org/1999/xlink" x="0px" y="0px"
	 viewBox="0 0 132.5 144" style="enable-background:new 0 0 132.5 144;" xml:space="preserve">
<style type="text/css">
	.st0{fill:#FF7900;}
</style>
<g>
	<path class="st0" d="M107,4.2H101V4.1c0-2.3-1.8-4.1-4.1-4.1H39.8c-2.3,0-4.1,1.8-4.1,4.1v0.1H25.6C11.4,4.2,0,15.7,0,29.8v80.8
		c0,14.1,11.4,25.6,25.6,25.6h8.3v3.1c0,2.6,2.1,4.7,4.7,4.7h0.2c2.6,0,4.7-2.1,4.7-4.7v-3.1h49v3.1c0,2.6,2.1,4.7,4.7,4.7h0.2
		c2.6,0,4.7-2.1,4.7-4.7v-3.1h4.7c14.1,0,25.6-11.4,25.6-25.6V29.8C132.5,15.7,121.1,4.2,107,4.2z M66.3,125.7
		c-29.8,0-54-24.2-54-54c0-29.8,24.2-54,54-54c29.8,0,54,24.2,54,54C120.3,101.6,96.1,125.7,66.3,125.7z"/>
	<circle class="st0" cx="66.3" cy="71.8" r="6.1"/>
	<path class="st0" d="M57.7,76.7L44.8,93.8c-1.5,2.2-0.8,4.7,1,5.9c1.8,1.3,4.4,1.1,5.9-1l12.9-17.1C61.7,81.1,59.2,79.2,57.7,76.7z
		"/>
	<path class="st0" d="M70.8,62.9V34.2c0-2.7-2.3-4.3-4.5-4.3c-2.2,0-4.5,1.6-4.5,4.3V63c1.4-0.7,2.9-1.1,4.6-1.1
		C67.9,61.8,69.4,62.2,70.8,62.9z"/>
</g>
</svg>
